<svg xmlns="http://www.w3.org/2000/svg" width="32" height="32" viewBox="0 0 32 32" fill="none">
  <path fill-rule="evenodd" clip-rule="evenodd" d="M9.62624 8.00016C8.47424 8.00016 7.39424 8.4455 6.58624 9.25483C4.90891 10.9348 4.90891 13.6695 6.58757 15.3522L15.9996 24.7802L25.4129 15.3522C27.0916 13.6695 27.0916 10.9348 25.4129 9.25483C23.7969 7.63483 20.9489 7.6375 19.3329 9.25483L16.9436 11.6482C16.4422 12.1508 15.5569 12.1508 15.0556 11.6482L12.6662 9.2535C11.8582 8.4455 10.7796 8.00016 9.62624 8.00016ZM15.9996 28.0002C15.6462 28.0002 15.3062 27.8602 15.0569 27.6082L4.69957 17.2348C1.98491 14.5148 1.98491 10.0895 4.69957 7.3695C6.01157 6.0575 7.76091 5.3335 9.62624 5.3335C11.4916 5.3335 13.2422 6.0575 14.5529 7.3695L15.9996 8.81883L17.4462 7.37083C18.7582 6.0575 20.5076 5.3335 22.3742 5.3335C24.2382 5.3335 25.9889 6.0575 27.2996 7.3695C30.0156 10.0895 30.0156 14.5148 27.3009 17.2348L16.9436 27.6095C16.6929 27.8602 16.3542 28.0002 15.9996 28.0002Z" fill="#AA6F34"/>
</svg>