<svg xmlns="http://www.w3.org/2000/svg" width="56" height="56" viewBox="0 0 56 56" fill="none">
  <path fill-rule="evenodd" clip-rule="evenodd" d="M40.25 25.6667C40.25 24.7002 41.0335 23.9167 42 23.9167H51.3333C52.2998 23.9167 53.0833 24.7002 53.0833 25.6667V44.3334C53.0833 45.2999 52.2998 46.0834 51.3333 46.0834H46.2248L43.2374 49.0709C42.554 49.7543 41.4459 49.7543 40.7625 49.0709L37.7751 46.0834H25.6666C24.7001 46.0834 23.9166 45.2999 23.9166 44.3334V35.0001C23.9166 34.0336 24.7001 33.2501 25.6666 33.2501H40.25V25.6667ZM43.75 27.4167V35.0001C43.75 35.9666 42.9665 36.7501 42 36.7501H27.4166V42.5834H38.5C38.9641 42.5834 39.4092 42.7678 39.7374 43.096L42 45.3585L44.2625 43.096C44.5907 42.7678 45.0358 42.5834 45.5 42.5834H49.5833V27.4167H43.75Z" fill="#AA6F34"/>
  <path fill-rule="evenodd" clip-rule="evenodd" d="M2.91663 7C2.91663 6.0335 3.70013 5.25 4.66663 5.25H42C42.9665 5.25 43.75 6.0335 43.75 7V35C43.75 35.9665 42.9665 36.75 42 36.75H20.5582L16.4041 40.9041C15.7206 41.5875 14.6126 41.5875 13.9292 40.9041L9.77509 36.75H4.66663C3.70013 36.75 2.91663 35.9665 2.91663 35V7ZM6.41663 8.75V33.25H10.5C10.9641 33.25 11.4092 33.4344 11.7374 33.7626L15.1666 37.1918L18.5959 33.7626C18.924 33.4344 19.3692 33.25 19.8333 33.25H40.25V8.75H6.41663Z" fill="#AA6F34"/>
  <path fill-rule="evenodd" clip-rule="evenodd" d="M12.25 25.6667C12.25 24.7002 13.0335 23.9167 14 23.9167H21C21.9665 23.9167 22.75 24.7002 22.75 25.6667C22.75 26.6332 21.9665 27.4167 21 27.4167H14C13.0335 27.4167 12.25 26.6332 12.25 25.6667Z" fill="#AA6F34"/>
  <path fill-rule="evenodd" clip-rule="evenodd" d="M12.25 16.3333C12.25 15.3668 13.0335 14.5833 14 14.5833H28C28.9665 14.5833 29.75 15.3668 29.75 16.3333C29.75 17.2998 28.9665 18.0833 28 18.0833H14C13.0335 18.0833 12.25 17.2998 12.25 16.3333Z" fill="#AA6F34"/>
</svg>