<svg width="994" height="607" viewBox="0 0 994 607" fill="none" xmlns="http://www.w3.org/2000/svg">
<g filter="url(#filter0_d_5902_4818)">
<path d="M9.21839 14.1392C8.53562 14.1392 7.9324 14.0182 7.40873 13.7763C6.88837 13.531 6.48236 13.1946 6.19069 12.767C5.89902 12.3362 5.75485 11.8456 5.75816 11.2955C5.75485 10.8646 5.83936 10.4669 6.01171 10.1023C6.18406 9.73437 6.41938 9.42779 6.71768 9.18253C7.01929 8.93395 7.3557 8.77651 7.72691 8.71023V8.65057C7.2397 8.52462 6.85191 8.25118 6.56356 7.83026C6.27521 7.40601 6.13269 6.92377 6.136 6.38352C6.13269 5.86648 6.26361 5.40412 6.52876 4.99645C6.79391 4.58878 7.15849 4.26728 7.62251 4.03196C8.08984 3.79664 8.6218 3.67898 9.21839 3.67898C9.80835 3.67898 10.3353 3.79664 10.7994 4.03196C11.2634 4.26728 11.628 4.58878 11.8931 4.99645C12.1616 5.40412 12.2975 5.86648 12.3008 6.38352C12.2975 6.92377 12.15 7.40601 11.8583 7.83026C11.57 8.25118 11.1871 8.52462 10.7099 8.65057V8.71023C11.0778 8.77651 11.4092 8.93395 11.7042 9.18253C11.9992 9.42779 12.2345 9.73437 12.4102 10.1023C12.5858 10.4669 12.6753 10.8646 12.6786 11.2955C12.6753 11.8456 12.5262 12.3362 12.2312 12.767C11.9395 13.1946 11.5335 13.531 11.0131 13.7763C10.4961 14.0182 9.89784 14.1392 9.21839 14.1392ZM9.21839 13.0455C9.67909 13.0455 10.0768 12.9709 10.4116 12.8217C10.7463 12.6726 11.0048 12.4621 11.1871 12.1903C11.3694 11.9186 11.4622 11.6004 11.4655 11.2358C11.4622 10.8513 11.3628 10.5116 11.1673 10.2166C10.9717 9.92164 10.7049 9.68963 10.3668 9.5206C10.0321 9.35156 9.64926 9.26705 9.21839 9.26705C8.7842 9.26705 8.39642 9.35156 8.05504 9.5206C7.71697 9.68963 7.45016 9.92164 7.25461 10.2166C7.06238 10.5116 6.96791 10.8513 6.97123 11.2358C6.96791 11.6004 7.05575 11.9186 7.23472 12.1903C7.41702 12.4621 7.6772 12.6726 8.01526 12.8217C8.35333 12.9709 8.75437 13.0455 9.21839 13.0455ZM9.21839 8.21307C9.58297 8.21307 9.90613 8.14015 10.1878 7.99432C10.4729 7.84848 10.6966 7.64465 10.859 7.38281C11.0214 7.12098 11.1043 6.81439 11.1076 6.46307C11.1043 6.11837 11.0231 5.81842 10.864 5.56321C10.7049 5.30469 10.4845 5.10582 10.2028 4.96662C9.92104 4.8241 9.59292 4.75284 9.21839 4.75284C8.83723 4.75284 8.50414 4.8241 8.2191 4.96662C7.93406 5.10582 7.71365 5.30469 7.55788 5.56321C7.4021 5.81842 7.32587 6.11837 7.32918 6.46307C7.32587 6.81439 7.40376 7.12098 7.56285 7.38281C7.72525 7.64465 7.94898 7.84848 8.23401 7.99432C8.51905 8.14015 8.84718 8.21307 9.21839 8.21307ZM17.625 14.1392C16.8759 14.1392 16.2379 13.9354 15.7109 13.5277C15.1839 13.1167 14.7813 12.5218 14.5028 11.7429C14.2244 10.9607 14.0852 10.0161 14.0852 8.90909C14.0852 7.80871 14.2244 6.86908 14.5028 6.0902C14.7846 5.308 15.1889 4.71141 15.7159 4.30043C16.2462 3.88613 16.8826 3.67898 17.625 3.67898C18.3674 3.67898 19.0021 3.88613 19.5291 4.30043C20.0594 4.71141 20.4638 5.308 20.7422 6.0902C21.0239 6.86908 21.1648 7.80871 21.1648 8.90909C21.1648 10.0161 21.0256 10.9607 20.7472 11.7429C20.4688 12.5218 20.0661 13.1167 19.5391 13.5277C19.0121 13.9354 18.3741 14.1392 17.625 14.1392ZM17.625 13.0455C18.3674 13.0455 18.9441 12.6875 19.3551 11.9716C19.7661 11.2557 19.9716 10.2348 19.9716 8.90909C19.9716 8.02746 19.8771 7.27675 19.6882 6.65696C19.5026 6.03717 19.2341 5.56487 18.8828 5.24006C18.5348 4.91525 18.1155 4.75284 17.625 4.75284C16.8892 4.75284 16.3142 5.11577 15.8999 5.84162C15.4856 6.56416 15.2784 7.58665 15.2784 8.90909C15.2784 9.79072 15.3712 10.5398 15.5568 11.1562C15.7424 11.7727 16.0092 12.2417 16.3572 12.5632C16.7086 12.8847 17.1312 13.0455 17.625 13.0455Z" fill="#212121"/>
<path d="M7.12286 75.1113L11.6768 66.1028V66.0233H6.42684V64.9295H12.9496V66.0829L8.41548 75.1113H7.12286ZM17.625 75.2505C16.8759 75.2505 16.2379 75.0467 15.7109 74.639C15.1839 74.228 14.7813 73.6331 14.5028 72.8542C14.2244 72.072 14.0852 71.1274 14.0852 70.0204C14.0852 68.92 14.2244 67.9804 14.5028 67.2015C14.7846 66.4193 15.1889 65.8227 15.7159 65.4118C16.2462 64.9975 16.8826 64.7903 17.625 64.7903C18.3674 64.7903 19.0021 64.9975 19.5291 65.4118C20.0594 65.8227 20.4638 66.4193 20.7422 67.2015C21.0239 67.9804 21.1648 68.92 21.1648 70.0204C21.1648 71.1274 21.0256 72.072 20.7472 72.8542C20.4688 73.6331 20.0661 74.228 19.5391 74.639C19.0121 75.0467 18.3741 75.2505 17.625 75.2505ZM17.625 74.1568C18.3674 74.1568 18.9441 73.7988 19.3551 73.0829C19.7661 72.367 19.9716 71.3462 19.9716 70.0204C19.9716 69.1388 19.8771 68.3881 19.6882 67.7683C19.5026 67.1485 19.2341 66.6762 18.8828 66.3514C18.5348 66.0266 18.1155 65.8642 17.625 65.8642C16.8892 65.8642 16.3142 66.2271 15.8999 66.9529C15.4856 67.6755 15.2784 68.698 15.2784 70.0204C15.2784 70.902 15.3712 71.6511 15.5568 72.2676C15.7424 72.8841 16.0092 73.353 16.3572 73.6745C16.7086 73.996 17.1312 74.1568 17.625 74.1568Z" fill="#212121"/>
<path d="M9.22833 136.362C8.81072 136.355 8.3931 136.276 7.97549 136.123C7.55788 135.971 7.17672 135.714 6.83202 135.353C6.48733 134.988 6.21058 134.496 6.00177 133.876C5.79296 133.253 5.68856 132.471 5.68856 131.529C5.68856 130.628 5.77308 129.829 5.94211 129.133C6.11114 128.434 6.35641 127.846 6.67791 127.368C6.9994 126.888 7.38719 126.523 7.84126 126.275C8.29864 126.026 8.81403 125.902 9.38742 125.902C9.9575 125.902 10.4646 126.016 10.9087 126.245C11.3562 126.47 11.7208 126.785 12.0025 127.189C12.2842 127.594 12.4665 128.059 12.5494 128.586H11.3363C11.2236 128.129 11.0048 127.749 10.68 127.448C10.3552 127.146 9.92435 126.995 9.38742 126.995C8.5986 126.995 7.97715 127.338 7.52308 128.025C7.07232 128.711 6.84528 129.673 6.84197 130.913H6.92151C7.10712 130.631 7.32753 130.391 7.58274 130.192C7.84126 129.99 8.1263 129.834 8.43785 129.725C8.7494 129.615 9.07918 129.561 9.4272 129.561C10.0105 129.561 10.5441 129.707 11.028 129.998C11.5119 130.287 11.8997 130.686 12.1914 131.196C12.4831 131.703 12.6289 132.285 12.6289 132.941C12.6289 133.571 12.488 134.148 12.2063 134.672C11.9246 135.192 11.5285 135.606 11.0181 135.914C10.511 136.219 9.91441 136.368 9.22833 136.362ZM9.22833 135.268C9.64595 135.268 10.0205 135.164 10.3519 134.955C10.6867 134.746 10.9502 134.466 11.1424 134.115C11.3379 133.763 11.4357 133.372 11.4357 132.941C11.4357 132.52 11.3413 132.138 11.1523 131.793C10.9667 131.445 10.7099 131.168 10.3817 130.963C10.0569 130.757 9.68572 130.654 9.2681 130.654C8.95324 130.654 8.65991 130.717 8.38813 130.843C8.11635 130.966 7.87772 131.135 7.67222 131.35C7.47005 131.566 7.31095 131.813 7.19495 132.091C7.07895 132.366 7.02095 132.656 7.02095 132.961C7.02095 133.366 7.11541 133.743 7.30433 134.095C7.49656 134.446 7.7584 134.73 8.08984 134.945C8.42459 135.16 8.80409 135.268 9.22833 135.268ZM17.625 136.362C16.8759 136.362 16.2379 136.158 15.7109 135.75C15.1839 135.339 14.7813 134.744 14.5028 133.966C14.2244 133.183 14.0852 132.239 14.0852 131.132C14.0852 130.031 14.2244 129.092 14.5028 128.313C14.7846 127.531 15.1889 126.934 15.7159 126.523C16.2462 126.109 16.8826 125.902 17.625 125.902C18.3674 125.902 19.0021 126.109 19.5291 126.523C20.0594 126.934 20.4638 127.531 20.7422 128.313C21.0239 129.092 21.1648 130.031 21.1648 131.132C21.1648 132.239 21.0256 133.183 20.7472 133.966C20.4688 134.744 20.0661 135.339 19.5391 135.75C19.0121 136.158 18.3741 136.362 17.625 136.362ZM17.625 135.268C18.3674 135.268 18.9441 134.91 19.3551 134.194C19.7661 133.478 19.9716 132.458 19.9716 131.132C19.9716 130.25 19.8771 129.499 19.6882 128.88C19.5026 128.26 19.2341 127.788 18.8828 127.463C18.5348 127.138 18.1155 126.975 17.625 126.975C16.8892 126.975 16.3142 127.338 15.8999 128.064C15.4856 128.787 15.2784 129.809 15.2784 131.132C15.2784 132.013 15.3712 132.762 15.5568 133.379C15.7424 133.995 16.0092 134.464 16.3572 134.786C16.7086 135.107 17.1312 135.268 17.625 135.268Z" fill="#212121"/>
<path d="M9.24822 197.472C8.66488 197.472 8.13955 197.356 7.67222 197.124C7.20489 196.892 6.83037 196.574 6.54864 196.17C6.26692 195.765 6.1128 195.305 6.08629 194.788H7.27947C7.32587 195.248 7.53468 195.629 7.90589 195.931C8.28042 196.229 8.72786 196.378 9.24822 196.378C9.66583 196.378 10.037 196.281 10.3619 196.085C10.69 195.89 10.9468 195.621 11.1325 195.28C11.3214 194.935 11.4158 194.546 11.4158 194.111C11.4158 193.667 11.3181 193.271 11.1225 192.923C10.9303 192.572 10.6651 192.295 10.3271 192.093C9.98899 191.891 9.60286 191.788 9.16867 191.785C8.85712 191.781 8.53728 191.829 8.20916 191.929C7.88103 192.025 7.61091 192.149 7.39879 192.302L6.24538 192.163L6.86185 187.151H12.1516V188.245H7.89595L7.53799 191.248H7.59765C7.80646 191.082 8.06829 190.945 8.38316 190.835C8.69803 190.726 9.02615 190.671 9.36754 190.671C9.99064 190.671 10.5458 190.82 11.033 191.119C11.5235 191.414 11.908 191.818 12.1864 192.332C12.4682 192.845 12.609 193.432 12.609 194.092C12.609 194.741 12.4632 195.321 12.1715 195.832C11.8832 196.339 11.4854 196.74 10.9783 197.035C10.4712 197.326 9.89453 197.472 9.24822 197.472ZM17.625 197.472C16.8759 197.472 16.2379 197.268 15.7109 196.861C15.1839 196.45 14.7813 195.855 14.5028 195.076C14.2244 194.294 14.0852 193.349 14.0852 192.242C14.0852 191.142 14.2244 190.202 14.5028 189.423C14.7846 188.641 15.1889 188.044 15.7159 187.633C16.2462 187.219 16.8826 187.012 17.625 187.012C18.3674 187.012 19.0021 187.219 19.5291 187.633C20.0594 188.044 20.4638 188.641 20.7422 189.423C21.0239 190.202 21.1648 191.142 21.1648 192.242C21.1648 193.349 21.0256 194.294 20.7472 195.076C20.4688 195.855 20.0661 196.45 19.5391 196.861C19.0121 197.268 18.3741 197.472 17.625 197.472ZM17.625 196.378C18.3674 196.378 18.9441 196.021 19.3551 195.305C19.7661 194.589 19.9716 193.568 19.9716 192.242C19.9716 191.36 19.8771 190.61 19.6882 189.99C19.5026 189.37 19.2341 188.898 18.8828 188.573C18.5348 188.248 18.1155 188.086 17.625 188.086C16.8892 188.086 16.3142 188.449 15.8999 189.175C15.4856 189.897 15.2784 190.92 15.2784 192.242C15.2784 193.124 15.3712 193.873 15.5568 194.489C15.7424 195.106 16.0092 195.575 16.3572 195.896C16.7086 196.218 17.1312 196.378 17.625 196.378Z" fill="#212121"/>
<path d="M5.36292 256.356V255.342L9.83735 248.263H10.5731V249.834H10.076L6.69531 255.183V255.263H12.7209V256.356H5.36292ZM10.1555 258.444V256.048V255.576V248.263H11.3288V258.444H10.1555ZM17.625 258.584C16.8759 258.584 16.2379 258.38 15.7109 257.972C15.1839 257.561 14.7813 256.966 14.5028 256.187C14.2244 255.405 14.0852 254.46 14.0852 253.353C14.0852 252.253 14.2244 251.313 14.5028 250.535C14.7846 249.752 15.1889 249.156 15.7159 248.745C16.2462 248.33 16.8826 248.123 17.625 248.123C18.3674 248.123 19.0021 248.33 19.5291 248.745C20.0594 249.156 20.4638 249.752 20.7422 250.535C21.0239 251.313 21.1648 252.253 21.1648 253.353C21.1648 254.46 21.0256 255.405 20.7472 256.187C20.4688 256.966 20.0661 257.561 19.5391 257.972C19.0121 258.38 18.3741 258.584 17.625 258.584ZM17.625 257.49C18.3674 257.49 18.9441 257.132 19.3551 256.416C19.7661 255.7 19.9716 254.679 19.9716 253.353C19.9716 252.472 19.8771 251.721 19.6882 251.101C19.5026 250.482 19.2341 250.009 18.8828 249.684C18.5348 249.36 18.1155 249.197 17.625 249.197C16.8892 249.197 16.3142 249.56 15.8999 250.286C15.4856 251.008 15.2784 252.031 15.2784 253.353C15.2784 254.235 15.3712 254.984 15.5568 255.601C15.7424 256.217 16.0092 256.686 16.3572 257.008C16.7086 257.329 17.1312 257.49 17.625 257.49Z" fill="#212121"/>
<path d="M9.11026 319.695C8.45401 319.695 7.86902 319.582 7.35528 319.357C6.84487 319.131 6.43885 318.818 6.13725 318.417C5.83895 318.013 5.67654 317.544 5.65003 317.01H6.90287C6.92939 317.338 7.04207 317.622 7.24094 317.86C7.4398 318.096 7.69998 318.278 8.02148 318.407C8.34297 318.536 8.69927 318.601 9.09037 318.601C9.52787 318.601 9.91565 318.525 10.2537 318.372C10.5918 318.22 10.8569 318.008 11.0492 317.736C11.2414 317.464 11.3375 317.149 11.3375 316.791C11.3375 316.417 11.2447 316.087 11.0591 315.802C10.8735 315.514 10.6017 315.288 10.2438 315.126C9.88582 314.964 9.44832 314.882 8.93128 314.882H8.11594V313.789H8.93128C9.33564 313.789 9.69028 313.716 9.9952 313.57C10.3034 313.424 10.5437 313.219 10.7161 312.953C10.8917 312.688 10.9796 312.377 10.9796 312.019C10.9796 311.674 10.9033 311.374 10.7509 311.119C10.5984 310.864 10.383 310.665 10.1046 310.522C9.82948 310.38 9.50467 310.309 9.13014 310.309C8.77882 310.309 8.44738 310.373 8.13582 310.502C7.82759 310.628 7.57569 310.812 7.38014 311.054C7.18459 311.293 7.07853 311.581 7.06196 311.919H5.86878C5.88867 311.386 6.04941 310.918 6.35102 310.517C6.65263 310.113 7.04705 309.798 7.53426 309.573C8.02479 309.347 8.56338 309.235 9.15003 309.235C9.77976 309.235 10.32 309.362 10.7708 309.617C11.2215 309.869 11.5679 310.202 11.8098 310.617C12.0518 311.031 12.1728 311.478 12.1728 311.959C12.1728 312.532 12.022 313.021 11.7203 313.426C11.422 313.83 11.016 314.11 10.5023 314.266V314.345C11.1453 314.451 11.6474 314.725 12.0087 315.166C12.37 315.603 12.5506 316.145 12.5506 316.791C12.5506 317.345 12.3998 317.842 12.0982 318.283C11.7999 318.72 11.3922 319.065 10.8752 319.317C10.3581 319.569 9.76982 319.695 9.11026 319.695ZM17.625 319.695C16.8759 319.695 16.2379 319.491 15.7109 319.083C15.1839 318.672 14.7813 318.077 14.5028 317.299C14.2244 316.516 14.0852 315.572 14.0852 314.465C14.0852 313.364 14.2244 312.425 14.5028 311.646C14.7846 310.864 15.1889 310.267 15.7159 309.856C16.2462 309.442 16.8826 309.235 17.625 309.235C18.3674 309.235 19.0021 309.442 19.5291 309.856C20.0594 310.267 20.4638 310.864 20.7422 311.646C21.0239 312.425 21.1648 313.364 21.1648 314.465C21.1648 315.572 21.0256 316.516 20.7472 317.299C20.4688 318.077 20.0661 318.672 19.5391 319.083C19.0121 319.491 18.3741 319.695 17.625 319.695ZM17.625 318.601C18.3674 318.601 18.9441 318.243 19.3551 317.527C19.7661 316.811 19.9716 315.791 19.9716 314.465C19.9716 313.583 19.8771 312.832 19.6882 312.213C19.5026 311.593 19.2341 311.121 18.8828 310.796C18.5348 310.471 18.1155 310.309 17.625 310.309C16.8892 310.309 16.3142 310.671 15.8999 311.397C15.4856 312.12 15.2784 313.142 15.2784 314.465C15.2784 315.346 15.3712 316.095 15.5568 316.712C15.7424 317.328 16.0092 317.797 16.3572 318.119C16.7086 318.44 17.1312 318.601 17.625 318.601Z" fill="#212121"/>
<path d="M6.10742 380.667V379.772L9.46821 376.093C9.86262 375.662 10.1874 375.288 10.4426 374.97C10.6979 374.648 10.8868 374.346 11.0094 374.065C11.1354 373.78 11.1983 373.481 11.1983 373.17C11.1983 372.812 11.1122 372.502 10.9398 372.24C10.7708 371.978 10.5388 371.776 10.2438 371.634C9.9488 371.491 9.61736 371.42 9.24946 371.42C8.85836 371.42 8.51698 371.501 8.22531 371.663C7.93696 371.823 7.71324 372.046 7.55415 372.335C7.39837 372.623 7.32048 372.961 7.32048 373.349H6.14719C6.14719 372.752 6.28474 372.229 6.55983 371.778C6.83493 371.327 7.20945 370.976 7.68341 370.724C8.16068 370.472 8.69596 370.346 9.28923 370.346C9.88582 370.346 10.4145 370.472 10.8752 370.724C11.3359 370.976 11.6971 371.315 11.959 371.743C12.2208 372.171 12.3517 372.646 12.3517 373.17C12.3517 373.544 12.2838 373.911 12.1479 374.269C12.0153 374.623 11.7833 375.019 11.4519 375.457C11.1238 375.891 10.668 376.421 10.0847 377.048L7.79776 379.494V379.573H12.5307V380.667H6.10742ZM17.625 380.806C16.8759 380.806 16.2379 380.602 15.7109 380.195C15.1839 379.784 14.7813 379.189 14.5028 378.41C14.2244 377.628 14.0852 376.683 14.0852 375.576C14.0852 374.476 14.2244 373.536 14.5028 372.757C14.7846 371.975 15.1889 371.378 15.7159 370.967C16.2462 370.553 16.8826 370.346 17.625 370.346C18.3674 370.346 19.0021 370.553 19.5291 370.967C20.0594 371.378 20.4638 371.975 20.7422 372.757C21.0239 373.536 21.1648 374.476 21.1648 375.576C21.1648 376.683 21.0256 377.628 20.7472 378.41C20.4688 379.189 20.0661 379.784 19.5391 380.195C19.0121 380.602 18.3741 380.806 17.625 380.806ZM17.625 379.712C18.3674 379.712 18.9441 379.354 19.3551 378.639C19.7661 377.923 19.9716 376.902 19.9716 375.576C19.9716 374.694 19.8771 373.944 19.6882 373.324C19.5026 372.704 19.2341 372.232 18.8828 371.907C18.5348 371.582 18.1155 371.42 17.625 371.42C16.8892 371.42 16.3142 371.783 15.8999 372.509C15.4856 373.231 15.2784 374.254 15.2784 375.576C15.2784 376.458 15.3712 377.207 15.5568 377.823C15.7424 378.44 16.0092 378.909 16.3572 379.23C16.7086 379.552 17.1312 379.712 17.625 379.712Z" fill="#212121"/>
<path d="M11.6557 431.596V441.777H10.4228V432.888H10.3631L7.8773 434.539V433.286L10.4228 431.596H11.6557ZM17.625 441.917C16.8759 441.917 16.2379 441.713 15.7109 441.305C15.1839 440.894 14.7812 440.299 14.5028 439.52C14.2244 438.738 14.0852 437.793 14.0852 436.686C14.0852 435.586 14.2244 434.646 14.5028 433.868C14.7846 433.085 15.1889 432.489 15.7159 432.078C16.2462 431.663 16.8826 431.456 17.625 431.456C18.3674 431.456 19.0021 431.663 19.5291 432.078C20.0594 432.489 20.4638 433.085 20.7422 433.868C21.0239 434.646 21.1648 435.586 21.1648 436.686C21.1648 437.793 21.0256 438.738 20.7472 439.52C20.4687 440.299 20.0661 440.894 19.5391 441.305C19.0121 441.713 18.3741 441.917 17.625 441.917ZM17.625 440.823C18.3674 440.823 18.9441 440.465 19.3551 439.749C19.7661 439.033 19.9716 438.012 19.9716 436.686C19.9716 435.805 19.8771 435.054 19.6882 434.434C19.5026 433.815 19.2341 433.342 18.8828 433.017C18.5348 432.693 18.1155 432.53 17.625 432.53C16.8892 432.53 16.3142 432.893 15.8999 433.619C15.4856 434.342 15.2784 435.364 15.2784 436.686C15.2784 437.568 15.3712 438.317 15.5568 438.934C15.7424 439.55 16.0092 440.019 16.3572 440.341C16.7086 440.662 17.1312 440.823 17.625 440.823Z" fill="#212121"/>
<path d="M17.7182 503.028C17.1349 503.028 16.6096 502.912 16.1422 502.68C15.6749 502.448 15.3004 502.13 15.0186 501.725C14.7369 501.321 14.5828 500.86 14.5563 500.343H15.7495C15.7959 500.804 16.0047 501.185 16.3759 501.487C16.7504 501.785 17.1979 501.934 17.7182 501.934C18.1358 501.934 18.507 501.836 18.8319 501.641C19.16 501.445 19.4168 501.177 19.6025 500.835C19.7914 500.491 19.8858 500.101 19.8858 499.667C19.8858 499.223 19.7881 498.827 19.5925 498.479C19.4003 498.128 19.1351 497.851 18.7971 497.649C18.459 497.446 18.0729 497.344 17.6387 497.34C17.3271 497.337 17.0073 497.385 16.6792 497.485C16.351 497.581 16.0809 497.705 15.8688 497.857L14.7154 497.718L15.3319 492.707H20.6216V493.801H16.3659L16.008 496.803H16.0676C16.2765 496.638 16.5383 496.5 16.8532 496.391C17.168 496.281 17.4962 496.227 17.8375 496.227C18.4606 496.227 19.0158 496.376 19.503 496.674C19.9935 496.969 20.378 497.374 20.6564 497.887C20.9382 498.401 21.079 498.988 21.079 499.647C21.079 500.297 20.9332 500.877 20.6415 501.387C20.3532 501.894 19.9554 502.295 19.4483 502.59C18.9412 502.882 18.3645 503.028 17.7182 503.028Z" fill="#212121"/>
<path d="M17.625 564.139C16.8759 564.139 16.2379 563.935 15.7109 563.528C15.1839 563.117 14.7813 562.522 14.5028 561.743C14.2244 560.961 14.0852 560.016 14.0852 558.909C14.0852 557.809 14.2244 556.869 14.5028 556.09C14.7846 555.308 15.1889 554.711 15.7159 554.3C16.2462 553.886 16.8826 553.679 17.625 553.679C18.3674 553.679 19.0021 553.886 19.5291 554.3C20.0594 554.711 20.4638 555.308 20.7422 556.09C21.0239 556.869 21.1648 557.809 21.1648 558.909C21.1648 560.016 21.0256 560.961 20.7472 561.743C20.4688 562.522 20.0661 563.117 19.5391 563.528C19.0121 563.935 18.3741 564.139 17.625 564.139ZM17.625 563.045C18.3674 563.045 18.9441 562.687 19.3551 561.972C19.7661 561.256 19.9716 560.235 19.9716 558.909C19.9716 558.027 19.8771 557.277 19.6882 556.657C19.5026 556.037 19.2341 555.565 18.8828 555.24C18.5348 554.915 18.1155 554.753 17.625 554.753C16.8892 554.753 16.3142 555.116 15.8999 555.842C15.4856 556.564 15.2784 557.587 15.2784 558.909C15.2784 559.791 15.3712 560.54 15.5568 561.156C15.7424 561.773 16.0092 562.242 16.3572 562.563C16.7086 562.885 17.1312 563.045 17.625 563.045Z" fill="#212121"/>
<line x1="38.5" y1="17.5" x2="983.5" y2="17.5" stroke="#EEEEEE" stroke-linecap="round"/>
<line x1="38.5" y1="78.5" x2="983.5" y2="78.5" stroke="#EEEEEE" stroke-linecap="round"/>
<line x1="38.5" y1="139.5" x2="983.5" y2="139.5" stroke="#EEEEEE" stroke-linecap="round"/>
<line x1="38.5" y1="200.5" x2="983.5" y2="200.5" stroke="#EEEEEE" stroke-linecap="round"/>
<line x1="38.5" y1="261.5" x2="983.5" y2="261.5" stroke="#EEEEEE" stroke-linecap="round"/>
<line x1="38.5" y1="322.5" x2="983.5" y2="322.5" stroke="#EEEEEE" stroke-linecap="round"/>
<line x1="38.5" y1="383.5" x2="983.5" y2="383.5" stroke="#EEEEEE" stroke-linecap="round"/>
<line x1="38.5" y1="444.5" x2="983.5" y2="444.5" stroke="#EEEEEE" stroke-linecap="round"/>
<line x1="38.5" y1="505.5" x2="983.5" y2="505.5" stroke="#EEEEEE" stroke-linecap="round"/>
<line x1="38.5" y1="566.5" x2="983.5" y2="566.5" stroke="#EEEEEE" stroke-linecap="round"/>
<path d="M111.816 598.144C111.048 598.144 110.664 597.748 110.664 596.956V586.48C110.664 585.7 111.054 585.31 111.834 585.31H116.172C117.564 585.31 118.638 585.646 119.394 586.318C120.15 586.978 120.528 587.908 120.528 589.108C120.528 590.056 120.282 590.842 119.79 591.466C119.298 592.078 118.59 592.492 117.666 592.708C118.278 592.9 118.782 593.362 119.178 594.094L120.528 596.596C120.732 596.98 120.768 597.334 120.636 597.658C120.516 597.982 120.21 598.144 119.718 598.144C119.394 598.144 119.13 598.078 118.926 597.946C118.722 597.802 118.542 597.586 118.386 597.298L116.568 593.95C116.352 593.542 116.094 593.272 115.794 593.14C115.506 592.996 115.134 592.924 114.678 592.924H112.968V596.956C112.968 597.748 112.584 598.144 111.816 598.144ZM112.968 591.214H115.776C117.456 591.214 118.296 590.53 118.296 589.162C118.296 587.806 117.456 587.128 115.776 587.128H112.968V591.214ZM125.798 598.18C125.162 598.18 124.592 598.06 124.088 597.82C123.596 597.568 123.206 597.232 122.918 596.812C122.642 596.392 122.504 595.918 122.504 595.39C122.504 594.742 122.672 594.232 123.008 593.86C123.344 593.476 123.89 593.2 124.646 593.032C125.402 592.864 126.416 592.78 127.688 592.78H128.318V592.402C128.318 591.802 128.186 591.37 127.922 591.106C127.658 590.842 127.214 590.71 126.59 590.71C126.242 590.71 125.864 590.752 125.456 590.836C125.06 590.92 124.64 591.064 124.196 591.268C123.908 591.4 123.668 591.418 123.476 591.322C123.284 591.214 123.152 591.052 123.08 590.836C123.02 590.608 123.032 590.38 123.116 590.152C123.212 589.924 123.398 589.756 123.674 589.648C124.226 589.42 124.754 589.258 125.258 589.162C125.774 589.066 126.242 589.018 126.662 589.018C127.946 589.018 128.9 589.318 129.524 589.918C130.148 590.506 130.46 591.424 130.46 592.672V596.992C130.46 597.76 130.112 598.144 129.416 598.144C128.708 598.144 128.354 597.76 128.354 596.992V596.596C128.15 597.088 127.826 597.478 127.382 597.766C126.938 598.042 126.41 598.18 125.798 598.18ZM126.266 596.632C126.854 596.632 127.34 596.428 127.724 596.02C128.12 595.612 128.318 595.096 128.318 594.472V594.076H127.706C126.578 594.076 125.792 594.166 125.348 594.346C124.916 594.514 124.7 594.826 124.7 595.282C124.7 595.678 124.838 596.002 125.114 596.254C125.39 596.506 125.774 596.632 126.266 596.632ZM134.06 587.398C133.64 587.398 133.31 587.296 133.07 587.092C132.842 586.876 132.728 586.582 132.728 586.21C132.728 585.826 132.842 585.532 133.07 585.328C133.31 585.124 133.64 585.022 134.06 585.022C134.948 585.022 135.392 585.418 135.392 586.21C135.392 587.002 134.948 587.398 134.06 587.398ZM134.06 598.126C133.7 598.126 133.424 598.018 133.232 597.802C133.04 597.586 132.944 597.286 132.944 596.902V590.296C132.944 589.48 133.316 589.072 134.06 589.072C134.816 589.072 135.194 589.48 135.194 590.296V596.902C135.194 597.286 135.098 597.586 134.906 597.802C134.714 598.018 134.432 598.126 134.06 598.126ZM141.296 598.144C140.696 598.144 140.252 597.826 139.964 597.19L137.102 590.548C136.934 590.152 136.928 589.804 137.084 589.504C137.252 589.204 137.582 589.054 138.074 589.054C138.35 589.054 138.572 589.12 138.74 589.252C138.908 589.372 139.058 589.606 139.19 589.954L141.35 595.354L143.582 589.936C143.714 589.6 143.864 589.372 144.032 589.252C144.212 589.12 144.452 589.054 144.752 589.054C145.136 589.054 145.406 589.204 145.562 589.504C145.718 589.804 145.712 590.146 145.544 590.53L142.628 597.19C142.364 597.826 141.92 598.144 141.296 598.144ZM150.146 598.18C149.51 598.18 148.94 598.06 148.436 597.82C147.944 597.568 147.554 597.232 147.266 596.812C146.99 596.392 146.852 595.918 146.852 595.39C146.852 594.742 147.02 594.232 147.356 593.86C147.692 593.476 148.238 593.2 148.994 593.032C149.75 592.864 150.764 592.78 152.036 592.78H152.666V592.402C152.666 591.802 152.534 591.37 152.27 591.106C152.006 590.842 151.562 590.71 150.938 590.71C150.59 590.71 150.212 590.752 149.804 590.836C149.408 590.92 148.988 591.064 148.544 591.268C148.256 591.4 148.016 591.418 147.824 591.322C147.632 591.214 147.5 591.052 147.428 590.836C147.368 590.608 147.38 590.38 147.464 590.152C147.56 589.924 147.746 589.756 148.022 589.648C148.574 589.42 149.102 589.258 149.606 589.162C150.122 589.066 150.59 589.018 151.01 589.018C152.294 589.018 153.248 589.318 153.872 589.918C154.496 590.506 154.808 591.424 154.808 592.672V596.992C154.808 597.76 154.46 598.144 153.764 598.144C153.056 598.144 152.702 597.76 152.702 596.992V596.596C152.498 597.088 152.174 597.478 151.73 597.766C151.286 598.042 150.758 598.18 150.146 598.18ZM150.614 596.632C151.202 596.632 151.688 596.428 152.072 596.02C152.468 595.612 152.666 595.096 152.666 594.472V594.076H152.054C150.926 594.076 150.14 594.166 149.696 594.346C149.264 594.514 149.048 594.826 149.048 595.282C149.048 595.678 149.186 596.002 149.462 596.254C149.738 596.506 150.122 596.632 150.614 596.632Z" fill="#212121"/>
<path d="M294.275 598.144C293.507 598.144 293.123 597.748 293.123 596.956V587.236H289.613C288.953 587.236 288.623 586.912 288.623 586.264C288.623 585.628 288.953 585.31 289.613 585.31H298.937C299.597 585.31 299.927 585.628 299.927 586.264C299.927 586.912 299.597 587.236 298.937 587.236H295.427V596.956C295.427 597.748 295.043 598.144 294.275 598.144ZM300.973 598.144C300.205 598.144 299.821 597.76 299.821 596.992V590.188C299.821 589.432 300.187 589.054 300.919 589.054C301.651 589.054 302.017 589.432 302.017 590.188V590.746C302.449 589.714 303.373 589.138 304.789 589.018C305.305 588.958 305.593 589.252 305.653 589.9C305.713 590.536 305.401 590.89 304.717 590.962L304.321 590.998C302.845 591.142 302.107 591.898 302.107 593.266V596.992C302.107 597.76 301.729 598.144 300.973 598.144ZM308.185 587.398C307.765 587.398 307.435 587.296 307.195 587.092C306.967 586.876 306.853 586.582 306.853 586.21C306.853 585.826 306.967 585.532 307.195 585.328C307.435 585.124 307.765 585.022 308.185 585.022C309.073 585.022 309.517 585.418 309.517 586.21C309.517 587.002 309.073 587.398 308.185 587.398ZM308.185 598.126C307.825 598.126 307.549 598.018 307.357 597.802C307.165 597.586 307.069 597.286 307.069 596.902V590.296C307.069 589.48 307.441 589.072 308.185 589.072C308.941 589.072 309.319 589.48 309.319 590.296V596.902C309.319 597.286 309.223 597.586 309.031 597.802C308.839 598.018 308.557 598.126 308.185 598.126ZM315.079 598.18C314.563 598.18 314.017 598.126 313.441 598.018C312.865 597.91 312.349 597.724 311.893 597.46C311.641 597.316 311.485 597.142 311.425 596.938C311.365 596.722 311.371 596.524 311.443 596.344C311.527 596.152 311.659 596.014 311.839 595.93C312.031 595.846 312.253 595.864 312.505 595.984C312.985 596.212 313.435 596.374 313.855 596.47C314.275 596.554 314.689 596.596 315.097 596.596C315.673 596.596 316.099 596.5 316.375 596.308C316.663 596.104 316.807 595.84 316.807 595.516C316.807 595.012 316.435 594.688 315.691 594.544L313.891 594.202C312.367 593.914 311.605 593.122 311.605 591.826C311.605 591.25 311.761 590.752 312.073 590.332C312.397 589.912 312.841 589.588 313.405 589.36C313.969 589.132 314.617 589.018 315.349 589.018C316.405 589.018 317.347 589.252 318.175 589.72C318.403 589.84 318.535 590.008 318.571 590.224C318.619 590.428 318.595 590.626 318.499 590.818C318.415 590.998 318.277 591.13 318.085 591.214C317.893 591.286 317.671 591.262 317.419 591.142C317.047 590.95 316.687 590.812 316.339 590.728C316.003 590.644 315.679 590.602 315.367 590.602C314.779 590.602 314.341 590.704 314.053 590.908C313.777 591.112 313.639 591.382 313.639 591.718C313.639 592.246 313.981 592.57 314.665 592.69L316.465 593.032C317.245 593.176 317.833 593.44 318.229 593.824C318.637 594.208 318.841 594.724 318.841 595.372C318.841 596.248 318.499 596.938 317.815 597.442C317.131 597.934 316.219 598.18 315.079 598.18ZM324.79 598.18C322.462 598.18 321.298 597.028 321.298 594.724V590.89H320.362C319.762 590.89 319.462 590.608 319.462 590.044C319.462 589.48 319.762 589.198 320.362 589.198H321.298V587.56C321.298 586.804 321.676 586.426 322.432 586.426C323.176 586.426 323.548 586.804 323.548 587.56V589.198H325.456C326.056 589.198 326.356 589.48 326.356 590.044C326.356 590.608 326.056 590.89 325.456 590.89H323.548V594.598C323.548 595.174 323.674 595.606 323.926 595.894C324.178 596.182 324.586 596.326 325.15 596.326C325.354 596.326 325.534 596.308 325.69 596.272C325.846 596.236 325.984 596.212 326.104 596.2C326.248 596.188 326.368 596.236 326.464 596.344C326.56 596.44 326.608 596.644 326.608 596.956C326.608 597.196 326.566 597.412 326.482 597.604C326.41 597.784 326.272 597.91 326.068 597.982C325.912 598.03 325.708 598.072 325.456 598.108C325.204 598.156 324.982 598.18 324.79 598.18ZM332.117 598.18C331.121 598.18 330.263 597.994 329.543 597.622C328.823 597.25 328.265 596.722 327.869 596.038C327.485 595.354 327.293 594.544 327.293 593.608C327.293 592.696 327.479 591.898 327.851 591.214C328.235 590.53 328.757 589.996 329.417 589.612C330.089 589.216 330.851 589.018 331.703 589.018C332.951 589.018 333.935 589.414 334.655 590.206C335.387 590.998 335.753 592.078 335.753 593.446C335.753 593.89 335.465 594.112 334.889 594.112H329.453C329.621 595.684 330.521 596.47 332.153 596.47C332.465 596.47 332.813 596.434 333.197 596.362C333.593 596.278 333.965 596.14 334.313 595.948C334.625 595.768 334.889 595.714 335.105 595.786C335.321 595.846 335.471 595.972 335.555 596.164C335.651 596.356 335.663 596.572 335.591 596.812C335.531 597.04 335.363 597.238 335.087 597.406C334.667 597.67 334.181 597.868 333.629 598C333.089 598.12 332.585 598.18 332.117 598.18ZM331.793 590.548C331.133 590.548 330.599 590.752 330.191 591.16C329.783 591.568 329.537 592.12 329.453 592.816H333.881C333.833 592.084 333.629 591.526 333.269 591.142C332.921 590.746 332.429 590.548 331.793 590.548ZM338.152 598C337.84 598 337.606 597.904 337.45 597.712C337.294 597.508 337.228 597.268 337.252 596.992C337.276 596.716 337.402 596.452 337.63 596.2L341.86 590.89H338.044C337.468 590.89 337.18 590.608 337.18 590.044C337.18 589.48 337.468 589.198 338.044 589.198H343.372C343.732 589.198 343.996 589.294 344.164 589.486C344.344 589.678 344.422 589.912 344.398 590.188C344.386 590.452 344.266 590.71 344.038 590.962L339.754 596.308H343.786C344.362 596.308 344.65 596.59 344.65 597.154C344.65 597.718 344.362 598 343.786 598H338.152ZM349.147 598.18C348.511 598.18 347.941 598.06 347.437 597.82C346.945 597.568 346.555 597.232 346.267 596.812C345.991 596.392 345.853 595.918 345.853 595.39C345.853 594.742 346.021 594.232 346.357 593.86C346.693 593.476 347.239 593.2 347.995 593.032C348.751 592.864 349.765 592.78 351.037 592.78H351.667V592.402C351.667 591.802 351.535 591.37 351.271 591.106C351.007 590.842 350.563 590.71 349.939 590.71C349.591 590.71 349.213 590.752 348.805 590.836C348.409 590.92 347.989 591.064 347.545 591.268C347.257 591.4 347.017 591.418 346.825 591.322C346.633 591.214 346.501 591.052 346.429 590.836C346.369 590.608 346.381 590.38 346.465 590.152C346.561 589.924 346.747 589.756 347.023 589.648C347.575 589.42 348.103 589.258 348.607 589.162C349.123 589.066 349.591 589.018 350.011 589.018C351.295 589.018 352.249 589.318 352.873 589.918C353.497 590.506 353.809 591.424 353.809 592.672V596.992C353.809 597.76 353.461 598.144 352.765 598.144C352.057 598.144 351.703 597.76 351.703 596.992V596.596C351.499 597.088 351.175 597.478 350.731 597.766C350.287 598.042 349.759 598.18 349.147 598.18ZM349.615 596.632C350.203 596.632 350.689 596.428 351.073 596.02C351.469 595.612 351.667 595.096 351.667 594.472V594.076H351.055C349.927 594.076 349.141 594.166 348.697 594.346C348.265 594.514 348.049 594.826 348.049 595.282C348.049 595.678 348.187 596.002 348.463 596.254C348.739 596.506 349.123 596.632 349.615 596.632Z" fill="#212121"/>
<path d="M477.951 598.144C477.531 598.144 477.231 598 477.051 597.712C476.871 597.424 476.877 597.076 477.069 596.668L481.821 586.138C481.977 585.79 482.163 585.544 482.379 585.4C482.607 585.244 482.865 585.166 483.153 585.166C483.429 585.166 483.675 585.244 483.891 585.4C484.119 585.544 484.311 585.79 484.467 586.138L489.237 596.668C489.429 597.088 489.441 597.442 489.273 597.73C489.105 598.006 488.817 598.144 488.409 598.144C488.073 598.144 487.809 598.066 487.617 597.91C487.437 597.742 487.275 597.49 487.131 597.154L486.231 595.066H480.039L479.157 597.154C479.001 597.502 478.839 597.754 478.671 597.91C478.503 598.066 478.263 598.144 477.951 598.144ZM483.117 587.812L480.831 593.23H485.439L483.153 587.812H483.117ZM494.258 598.144C493.658 598.144 493.214 597.826 492.926 597.19L490.064 590.548C489.896 590.152 489.89 589.804 490.046 589.504C490.214 589.204 490.544 589.054 491.036 589.054C491.312 589.054 491.534 589.12 491.702 589.252C491.87 589.372 492.02 589.606 492.152 589.954L494.312 595.354L496.544 589.936C496.676 589.6 496.826 589.372 496.994 589.252C497.174 589.12 497.414 589.054 497.714 589.054C498.098 589.054 498.368 589.204 498.524 589.504C498.68 589.804 498.674 590.146 498.506 590.53L495.59 597.19C495.326 597.826 494.882 598.144 494.258 598.144ZM504.548 598.18C503.552 598.18 502.694 597.994 501.974 597.622C501.254 597.25 500.696 596.722 500.3 596.038C499.916 595.354 499.724 594.544 499.724 593.608C499.724 592.696 499.91 591.898 500.282 591.214C500.666 590.53 501.188 589.996 501.848 589.612C502.52 589.216 503.282 589.018 504.134 589.018C505.382 589.018 506.366 589.414 507.086 590.206C507.818 590.998 508.184 592.078 508.184 593.446C508.184 593.89 507.896 594.112 507.32 594.112H501.884C502.052 595.684 502.952 596.47 504.584 596.47C504.896 596.47 505.244 596.434 505.628 596.362C506.024 596.278 506.396 596.14 506.744 595.948C507.056 595.768 507.32 595.714 507.536 595.786C507.752 595.846 507.902 595.972 507.986 596.164C508.082 596.356 508.094 596.572 508.022 596.812C507.962 597.04 507.794 597.238 507.518 597.406C507.098 597.67 506.612 597.868 506.06 598C505.52 598.12 505.016 598.18 504.548 598.18ZM504.224 590.548C503.564 590.548 503.03 590.752 502.622 591.16C502.214 591.568 501.968 592.12 501.884 592.816H506.312C506.264 592.084 506.06 591.526 505.7 591.142C505.352 590.746 504.86 590.548 504.224 590.548ZM511.318 598.144C510.55 598.144 510.166 597.76 510.166 596.992V590.188C510.166 589.432 510.532 589.054 511.264 589.054C511.996 589.054 512.362 589.432 512.362 590.188V590.746C512.794 589.714 513.718 589.138 515.134 589.018C515.65 588.958 515.938 589.252 515.998 589.9C516.058 590.536 515.746 590.89 515.062 590.962L514.666 590.998C513.19 591.142 512.452 591.898 512.452 593.266V596.992C512.452 597.76 512.074 598.144 511.318 598.144ZM520.549 598.18C520.033 598.18 519.487 598.126 518.911 598.018C518.335 597.91 517.819 597.724 517.363 597.46C517.111 597.316 516.955 597.142 516.895 596.938C516.835 596.722 516.841 596.524 516.913 596.344C516.997 596.152 517.129 596.014 517.309 595.93C517.501 595.846 517.723 595.864 517.975 595.984C518.455 596.212 518.905 596.374 519.325 596.47C519.745 596.554 520.159 596.596 520.567 596.596C521.143 596.596 521.569 596.5 521.845 596.308C522.133 596.104 522.277 595.84 522.277 595.516C522.277 595.012 521.905 594.688 521.161 594.544L519.361 594.202C517.837 593.914 517.075 593.122 517.075 591.826C517.075 591.25 517.231 590.752 517.543 590.332C517.867 589.912 518.311 589.588 518.875 589.36C519.439 589.132 520.087 589.018 520.819 589.018C521.875 589.018 522.817 589.252 523.645 589.72C523.873 589.84 524.005 590.008 524.041 590.224C524.089 590.428 524.065 590.626 523.969 590.818C523.885 590.998 523.747 591.13 523.555 591.214C523.363 591.286 523.141 591.262 522.889 591.142C522.517 590.95 522.157 590.812 521.809 590.728C521.473 590.644 521.149 590.602 520.837 590.602C520.249 590.602 519.811 590.704 519.523 590.908C519.247 591.112 519.109 591.382 519.109 591.718C519.109 592.246 519.451 592.57 520.135 592.69L521.935 593.032C522.715 593.176 523.303 593.44 523.699 593.824C524.107 594.208 524.311 594.724 524.311 595.372C524.311 596.248 523.969 596.938 523.285 597.442C522.601 597.934 521.689 598.18 520.549 598.18ZM529.214 598.18C528.578 598.18 528.008 598.06 527.504 597.82C527.012 597.568 526.622 597.232 526.334 596.812C526.058 596.392 525.92 595.918 525.92 595.39C525.92 594.742 526.088 594.232 526.424 593.86C526.76 593.476 527.306 593.2 528.062 593.032C528.818 592.864 529.832 592.78 531.104 592.78H531.734V592.402C531.734 591.802 531.602 591.37 531.338 591.106C531.074 590.842 530.63 590.71 530.006 590.71C529.658 590.71 529.28 590.752 528.872 590.836C528.476 590.92 528.056 591.064 527.612 591.268C527.324 591.4 527.084 591.418 526.892 591.322C526.7 591.214 526.568 591.052 526.496 590.836C526.436 590.608 526.448 590.38 526.532 590.152C526.628 589.924 526.814 589.756 527.09 589.648C527.642 589.42 528.17 589.258 528.674 589.162C529.19 589.066 529.658 589.018 530.078 589.018C531.362 589.018 532.316 589.318 532.94 589.918C533.564 590.506 533.876 591.424 533.876 592.672V596.992C533.876 597.76 533.528 598.144 532.832 598.144C532.124 598.144 531.77 597.76 531.77 596.992V596.596C531.566 597.088 531.242 597.478 530.798 597.766C530.354 598.042 529.826 598.18 529.214 598.18ZM529.682 596.632C530.27 596.632 530.756 596.428 531.14 596.02C531.536 595.612 531.734 595.096 531.734 594.472V594.076H531.122C529.994 594.076 529.208 594.166 528.764 594.346C528.332 594.514 528.116 594.826 528.116 595.282C528.116 595.678 528.254 596.002 528.53 596.254C528.806 596.506 529.19 596.632 529.682 596.632ZM527.234 587.542C527.054 587.53 526.916 587.47 526.82 587.362C526.724 587.254 526.7 587.086 526.748 586.858C526.808 586.522 526.916 586.198 527.072 585.886C527.24 585.562 527.468 585.292 527.756 585.076C528.044 584.86 528.404 584.752 528.836 584.752C529.136 584.752 529.4 584.812 529.628 584.932C529.856 585.052 530.066 585.19 530.258 585.346C530.45 585.502 530.642 585.64 530.834 585.76C531.026 585.88 531.236 585.94 531.464 585.94C531.716 585.94 531.932 585.856 532.112 585.688C532.304 585.508 532.424 585.286 532.472 585.022C532.532 584.746 532.742 584.614 533.102 584.626C533.282 584.638 533.42 584.698 533.516 584.806C533.612 584.914 533.636 585.082 533.588 585.31C533.528 585.634 533.414 585.958 533.246 586.282C533.078 586.606 532.85 586.876 532.562 587.092C532.286 587.308 531.932 587.416 531.5 587.416C531.2 587.416 530.936 587.356 530.708 587.236C530.48 587.116 530.264 586.978 530.06 586.822C529.868 586.666 529.676 586.528 529.484 586.408C529.292 586.288 529.088 586.228 528.872 586.228C528.62 586.228 528.404 586.312 528.224 586.48C528.044 586.648 527.924 586.87 527.864 587.146C527.804 587.422 527.594 587.554 527.234 587.542ZM540.374 598.18C539.462 598.18 538.67 597.994 537.998 597.622C537.326 597.25 536.804 596.722 536.432 596.038C536.06 595.342 535.874 594.526 535.874 593.59C535.874 592.654 536.06 591.844 536.432 591.16C536.804 590.476 537.326 589.948 537.998 589.576C538.67 589.204 539.462 589.018 540.374 589.018C541.286 589.018 542.078 589.204 542.75 589.576C543.422 589.948 543.944 590.476 544.316 591.16C544.688 591.844 544.874 592.654 544.874 593.59C544.874 594.526 544.688 595.342 544.316 596.038C543.944 596.722 543.422 597.25 542.75 597.622C542.078 597.994 541.286 598.18 540.374 598.18ZM540.374 596.47C541.046 596.47 541.586 596.23 541.994 595.75C542.402 595.258 542.606 594.538 542.606 593.59C542.606 592.63 542.402 591.916 541.994 591.448C541.586 590.968 541.046 590.728 540.374 590.728C539.702 590.728 539.162 590.968 538.754 591.448C538.346 591.916 538.142 592.63 538.142 593.59C538.142 594.538 538.346 595.258 538.754 595.75C539.162 596.23 539.702 596.47 540.374 596.47Z" fill="#212121"/>
<path d="M659.801 598.144C659.009 598.144 658.613 597.736 658.613 596.92V586.534C658.613 585.718 659.021 585.31 659.837 585.31H666.119C666.743 585.31 667.055 585.61 667.055 586.21C667.055 586.834 666.743 587.146 666.119 587.146H660.917V590.728H665.741C666.365 590.728 666.677 591.028 666.677 591.628C666.677 592.252 666.365 592.564 665.741 592.564H660.917V596.92C660.917 597.736 660.545 598.144 659.801 598.144ZM672.726 598.18C671.73 598.18 670.872 597.994 670.152 597.622C669.432 597.25 668.874 596.722 668.478 596.038C668.094 595.354 667.902 594.544 667.902 593.608C667.902 592.696 668.088 591.898 668.46 591.214C668.844 590.53 669.366 589.996 670.026 589.612C670.698 589.216 671.46 589.018 672.312 589.018C673.56 589.018 674.544 589.414 675.264 590.206C675.996 590.998 676.362 592.078 676.362 593.446C676.362 593.89 676.074 594.112 675.498 594.112H670.062C670.23 595.684 671.13 596.47 672.762 596.47C673.074 596.47 673.422 596.434 673.806 596.362C674.202 596.278 674.574 596.14 674.922 595.948C675.234 595.768 675.498 595.714 675.714 595.786C675.93 595.846 676.08 595.972 676.164 596.164C676.26 596.356 676.272 596.572 676.2 596.812C676.14 597.04 675.972 597.238 675.696 597.406C675.276 597.67 674.79 597.868 674.238 598C673.698 598.12 673.194 598.18 672.726 598.18ZM672.402 590.548C671.742 590.548 671.208 590.752 670.8 591.16C670.392 591.568 670.146 592.12 670.062 592.816H674.49C674.442 592.084 674.238 591.526 673.878 591.142C673.53 590.746 673.038 590.548 672.402 590.548ZM681.35 598.18C679.346 598.18 678.344 597.058 678.344 594.814V586.3C678.344 585.544 678.716 585.166 679.46 585.166C680.216 585.166 680.594 585.544 680.594 586.3V594.706C680.594 595.786 681.044 596.326 681.944 596.326C682.04 596.326 682.13 596.326 682.214 596.326C682.298 596.314 682.382 596.302 682.466 596.29C682.634 596.266 682.748 596.314 682.808 596.434C682.868 596.542 682.898 596.77 682.898 597.118C682.898 597.418 682.838 597.652 682.718 597.82C682.598 597.988 682.4 598.09 682.124 598.126C681.872 598.162 681.614 598.18 681.35 598.18ZM685.408 587.398C684.988 587.398 684.658 587.296 684.418 587.092C684.19 586.876 684.076 586.582 684.076 586.21C684.076 585.826 684.19 585.532 684.418 585.328C684.658 585.124 684.988 585.022 685.408 585.022C686.296 585.022 686.74 585.418 686.74 586.21C686.74 587.002 686.296 587.398 685.408 587.398ZM685.408 598.126C685.048 598.126 684.772 598.018 684.58 597.802C684.388 597.586 684.292 597.286 684.292 596.902V590.296C684.292 589.48 684.664 589.072 685.408 589.072C686.164 589.072 686.542 589.48 686.542 590.296V596.902C686.542 597.286 686.446 597.586 686.254 597.802C686.062 598.018 685.78 598.126 685.408 598.126ZM693.148 598.18C692.224 598.18 691.42 597.994 690.736 597.622C690.052 597.238 689.524 596.698 689.152 596.002C688.78 595.306 688.594 594.49 688.594 593.554C688.594 592.618 688.78 591.814 689.152 591.142C689.524 590.458 690.052 589.936 690.736 589.576C691.42 589.204 692.224 589.018 693.148 589.018C693.544 589.018 693.97 589.072 694.426 589.18C694.894 589.288 695.332 589.468 695.74 589.72C695.98 589.864 696.118 590.05 696.154 590.278C696.202 590.506 696.172 590.716 696.064 590.908C695.968 591.1 695.818 591.238 695.614 591.322C695.422 591.406 695.2 591.376 694.948 591.232C694.396 590.92 693.862 590.764 693.346 590.764C692.566 590.764 691.96 591.01 691.528 591.502C691.108 591.982 690.898 592.672 690.898 593.572C690.898 594.46 691.108 595.162 691.528 595.678C691.96 596.182 692.566 596.434 693.346 596.434C693.862 596.434 694.396 596.284 694.948 595.984C695.2 595.84 695.422 595.81 695.614 595.894C695.806 595.978 695.944 596.122 696.028 596.326C696.112 596.518 696.13 596.728 696.082 596.956C696.034 597.172 695.896 597.352 695.668 597.496C695.272 597.736 694.852 597.91 694.408 598.018C693.964 598.126 693.544 598.18 693.148 598.18ZM698.886 587.398C698.466 587.398 698.136 587.296 697.896 587.092C697.668 586.876 697.554 586.582 697.554 586.21C697.554 585.826 697.668 585.532 697.896 585.328C698.136 585.124 698.466 585.022 698.886 585.022C699.774 585.022 700.218 585.418 700.218 586.21C700.218 587.002 699.774 587.398 698.886 587.398ZM698.886 598.126C698.526 598.126 698.25 598.018 698.058 597.802C697.866 597.586 697.77 597.286 697.77 596.902V590.296C697.77 589.48 698.142 589.072 698.886 589.072C699.642 589.072 700.02 589.48 700.02 590.296V596.902C700.02 597.286 699.924 597.586 699.732 597.802C699.54 598.018 699.258 598.126 698.886 598.126ZM705.942 598.18C705.174 598.18 704.496 597.994 703.908 597.622C703.332 597.25 702.882 596.722 702.558 596.038C702.234 595.342 702.072 594.526 702.072 593.59C702.072 592.642 702.234 591.832 702.558 591.16C702.882 590.476 703.332 589.948 703.908 589.576C704.496 589.204 705.174 589.018 705.942 589.018C706.566 589.018 707.13 589.156 707.634 589.432C708.138 589.708 708.516 590.074 708.768 590.53V586.3C708.768 585.544 709.14 585.166 709.884 585.166C710.64 585.166 711.018 585.544 711.018 586.3V596.992C711.018 597.76 710.646 598.144 709.902 598.144C709.158 598.144 708.786 597.76 708.786 596.992V596.614C708.534 597.094 708.156 597.478 707.652 597.766C707.148 598.042 706.578 598.18 705.942 598.18ZM706.572 596.47C707.244 596.47 707.784 596.23 708.192 595.75C708.6 595.258 708.804 594.538 708.804 593.59C708.804 592.63 708.6 591.916 708.192 591.448C707.784 590.968 707.244 590.728 706.572 590.728C705.9 590.728 705.36 590.968 704.952 591.448C704.544 591.916 704.34 592.63 704.34 593.59C704.34 594.538 704.544 595.258 704.952 595.75C705.36 596.23 705.9 596.47 706.572 596.47ZM716.449 598.18C715.813 598.18 715.243 598.06 714.739 597.82C714.247 597.568 713.857 597.232 713.569 596.812C713.293 596.392 713.155 595.918 713.155 595.39C713.155 594.742 713.323 594.232 713.659 593.86C713.995 593.476 714.541 593.2 715.297 593.032C716.053 592.864 717.067 592.78 718.339 592.78H718.969V592.402C718.969 591.802 718.837 591.37 718.573 591.106C718.309 590.842 717.865 590.71 717.241 590.71C716.893 590.71 716.515 590.752 716.107 590.836C715.711 590.92 715.291 591.064 714.847 591.268C714.559 591.4 714.319 591.418 714.127 591.322C713.935 591.214 713.803 591.052 713.731 590.836C713.671 590.608 713.683 590.38 713.767 590.152C713.863 589.924 714.049 589.756 714.325 589.648C714.877 589.42 715.405 589.258 715.909 589.162C716.425 589.066 716.893 589.018 717.313 589.018C718.597 589.018 719.551 589.318 720.175 589.918C720.799 590.506 721.111 591.424 721.111 592.672V596.992C721.111 597.76 720.763 598.144 720.067 598.144C719.359 598.144 719.005 597.76 719.005 596.992V596.596C718.801 597.088 718.477 597.478 718.033 597.766C717.589 598.042 717.061 598.18 716.449 598.18ZM716.917 596.632C717.505 596.632 717.991 596.428 718.375 596.02C718.771 595.612 718.969 595.096 718.969 594.472V594.076H718.357C717.229 594.076 716.443 594.166 715.999 594.346C715.567 594.514 715.351 594.826 715.351 595.282C715.351 595.678 715.489 596.002 715.765 596.254C716.041 596.506 716.425 596.632 716.917 596.632ZM726.978 598.18C726.21 598.18 725.532 597.994 724.944 597.622C724.368 597.25 723.918 596.722 723.594 596.038C723.27 595.342 723.108 594.526 723.108 593.59C723.108 592.642 723.27 591.832 723.594 591.16C723.918 590.476 724.368 589.948 724.944 589.576C725.532 589.204 726.21 589.018 726.978 589.018C727.602 589.018 728.166 589.156 728.67 589.432C729.174 589.708 729.552 590.074 729.804 590.53V586.3C729.804 585.544 730.176 585.166 730.92 585.166C731.676 585.166 732.054 585.544 732.054 586.3V596.992C732.054 597.76 731.682 598.144 730.938 598.144C730.194 598.144 729.822 597.76 729.822 596.992V596.614C729.57 597.094 729.192 597.478 728.688 597.766C728.184 598.042 727.614 598.18 726.978 598.18ZM727.608 596.47C728.28 596.47 728.82 596.23 729.228 595.75C729.636 595.258 729.84 594.538 729.84 593.59C729.84 592.63 729.636 591.916 729.228 591.448C728.82 590.968 728.28 590.728 727.608 590.728C726.936 590.728 726.396 590.968 725.988 591.448C725.58 591.916 725.376 592.63 725.376 593.59C725.376 594.538 725.58 595.258 725.988 595.75C726.396 596.23 726.936 596.47 727.608 596.47ZM738.925 598.18C737.929 598.18 737.071 597.994 736.351 597.622C735.631 597.25 735.073 596.722 734.677 596.038C734.293 595.354 734.101 594.544 734.101 593.608C734.101 592.696 734.287 591.898 734.659 591.214C735.043 590.53 735.565 589.996 736.225 589.612C736.897 589.216 737.659 589.018 738.511 589.018C739.759 589.018 740.743 589.414 741.463 590.206C742.195 590.998 742.561 592.078 742.561 593.446C742.561 593.89 742.273 594.112 741.697 594.112H736.261C736.429 595.684 737.329 596.47 738.961 596.47C739.273 596.47 739.621 596.434 740.005 596.362C740.401 596.278 740.773 596.14 741.121 595.948C741.433 595.768 741.697 595.714 741.913 595.786C742.129 595.846 742.279 595.972 742.363 596.164C742.459 596.356 742.471 596.572 742.399 596.812C742.339 597.04 742.171 597.238 741.895 597.406C741.475 597.67 740.989 597.868 740.437 598C739.897 598.12 739.393 598.18 738.925 598.18ZM738.601 590.548C737.941 590.548 737.407 590.752 736.999 591.16C736.591 591.568 736.345 592.12 736.261 592.816H740.689C740.641 592.084 740.437 591.526 740.077 591.142C739.729 590.746 739.237 590.548 738.601 590.548Z" fill="#212121"/>
<path d="M868.293 598.144C867.597 598.144 867.249 597.784 867.249 597.064V586.246C867.249 585.526 867.609 585.166 868.329 585.166C868.629 585.166 868.863 585.226 869.031 585.346C869.211 585.454 869.373 585.646 869.517 585.922L873.675 593.608L877.833 585.922C877.977 585.646 878.133 585.454 878.301 585.346C878.469 585.226 878.703 585.166 879.003 585.166C879.699 585.166 880.047 585.526 880.047 586.246V597.064C880.047 597.784 879.699 598.144 879.003 598.144C878.307 598.144 877.959 597.784 877.959 597.064V589.45L874.575 595.624C874.455 595.828 874.329 595.978 874.197 596.074C874.065 596.17 873.885 596.218 873.657 596.218C873.429 596.218 873.243 596.17 873.099 596.074C872.955 595.966 872.829 595.816 872.721 595.624L869.337 589.486V597.064C869.337 597.784 868.989 598.144 868.293 598.144ZM887.162 598.18C886.166 598.18 885.308 597.994 884.588 597.622C883.868 597.25 883.31 596.722 882.914 596.038C882.53 595.354 882.338 594.544 882.338 593.608C882.338 592.696 882.524 591.898 882.896 591.214C883.28 590.53 883.802 589.996 884.462 589.612C885.134 589.216 885.896 589.018 886.748 589.018C887.996 589.018 888.98 589.414 889.7 590.206C890.432 590.998 890.798 592.078 890.798 593.446C890.798 593.89 890.51 594.112 889.934 594.112H884.498C884.666 595.684 885.566 596.47 887.198 596.47C887.51 596.47 887.858 596.434 888.242 596.362C888.638 596.278 889.01 596.14 889.358 595.948C889.67 595.768 889.934 595.714 890.15 595.786C890.366 595.846 890.516 595.972 890.6 596.164C890.696 596.356 890.708 596.572 890.636 596.812C890.576 597.04 890.408 597.238 890.132 597.406C889.712 597.67 889.226 597.868 888.674 598C888.134 598.12 887.63 598.18 887.162 598.18ZM886.838 590.548C886.178 590.548 885.644 590.752 885.236 591.16C884.828 591.568 884.582 592.12 884.498 592.816H888.926C888.878 592.084 888.674 591.526 888.314 591.142C887.966 590.746 887.474 590.548 886.838 590.548ZM896.163 598.18C895.395 598.18 894.717 597.994 894.129 597.622C893.553 597.25 893.103 596.722 892.779 596.038C892.455 595.342 892.293 594.526 892.293 593.59C892.293 592.642 892.455 591.832 892.779 591.16C893.103 590.476 893.553 589.948 894.129 589.576C894.717 589.204 895.395 589.018 896.163 589.018C896.787 589.018 897.351 589.156 897.855 589.432C898.359 589.708 898.737 590.074 898.989 590.53V586.3C898.989 585.544 899.361 585.166 900.105 585.166C900.861 585.166 901.239 585.544 901.239 586.3V596.992C901.239 597.76 900.867 598.144 900.123 598.144C899.379 598.144 899.007 597.76 899.007 596.992V596.614C898.755 597.094 898.377 597.478 897.873 597.766C897.369 598.042 896.799 598.18 896.163 598.18ZM896.793 596.47C897.465 596.47 898.005 596.23 898.413 595.75C898.821 595.258 899.025 594.538 899.025 593.59C899.025 592.63 898.821 591.916 898.413 591.448C898.005 590.968 897.465 590.728 896.793 590.728C896.121 590.728 895.581 590.968 895.173 591.448C894.765 591.916 894.561 592.63 894.561 593.59C894.561 594.538 894.765 595.258 895.173 595.75C895.581 596.23 896.121 596.47 896.793 596.47ZM907.786 598.18C906.874 598.18 906.082 597.994 905.41 597.622C904.738 597.25 904.216 596.722 903.844 596.038C903.472 595.342 903.286 594.526 903.286 593.59C903.286 592.654 903.472 591.844 903.844 591.16C904.216 590.476 904.738 589.948 905.41 589.576C906.082 589.204 906.874 589.018 907.786 589.018C908.698 589.018 909.49 589.204 910.162 589.576C910.834 589.948 911.356 590.476 911.728 591.16C912.1 591.844 912.286 592.654 912.286 593.59C912.286 594.526 912.1 595.342 911.728 596.038C911.356 596.722 910.834 597.25 910.162 597.622C909.49 597.994 908.698 598.18 907.786 598.18ZM907.786 596.47C908.458 596.47 908.998 596.23 909.406 595.75C909.814 595.258 910.018 594.538 910.018 593.59C910.018 592.63 909.814 591.916 909.406 591.448C908.998 590.968 908.458 590.728 907.786 590.728C907.114 590.728 906.574 590.968 906.166 591.448C905.758 591.916 905.554 592.63 905.554 593.59C905.554 594.538 905.758 595.258 906.166 595.75C906.574 596.23 907.114 596.47 907.786 596.47Z" fill="#212121"/>
</g>
<path d="M93 138C93 133.582 96.5817 130 101 130H164C168.418 130 172 133.582 172 138V575H93V138Z" fill="#E42325"/>
<path d="M282 457C282 452.582 285.582 449 290 449H353C357.418 449 361 452.582 361 457V576H282V457Z" fill="#2C4D9C"/>
<path d="M471 391C471 386.582 474.582 383 479 383H542C546.418 383 550 386.582 550 391V576H471V391Z" fill="#009F44"/>
<path d="M661 260C661 255.582 664.582 252 669 252H732C736.418 252 740 255.582 740 260V576H661V260Z" fill="#F8BB03"/>
<path d="M850 391C850 386.582 853.582 383 858 383H921C925.418 383 929 386.582 929 391V576H850V391Z" fill="#892A85"/>
<defs>
<filter id="filter0_d_5902_4818" x="0" y="0" width="994" height="606.18" filterUnits="userSpaceOnUse" color-interpolation-filters="sRGB">
<feFlood flood-opacity="0" result="BackgroundImageFix"/>
<feColorMatrix in="SourceAlpha" type="matrix" values="0 0 0 0 0 0 0 0 0 0 0 0 0 0 0 0 0 0 127 0" result="hardAlpha"/>
<feOffset dy="4"/>
<feGaussianBlur stdDeviation="2"/>
<feComposite in2="hardAlpha" operator="out"/>
<feColorMatrix type="matrix" values="0 0 0 0 0 0 0 0 0 0 0 0 0 0 0 0 0 0 0.25 0"/>
<feBlend mode="normal" in2="BackgroundImageFix" result="effect1_dropShadow_5902_4818"/>
<feBlend mode="normal" in="SourceGraphic" in2="effect1_dropShadow_5902_4818" result="shape"/>
</filter>
</defs>
</svg>
