<svg width="348" height="348" viewBox="0 0 348 348" fill="none" xmlns="http://www.w3.org/2000/svg">
<mask id="path-1-inside-1_4241_27545" fill="white">
<path d="M174.055 51.4199C144.98 51.4199 116.845 61.6775 94.6379 80.3739C72.4308 99.0702 57.5869 124.997 52.7382 153.558L114.195 163.913C116.587 149.821 123.911 137.028 134.869 127.803C145.826 118.578 159.709 113.517 174.055 113.517V51.4199Z"/>
</mask>
<path d="M174.055 51.4199C144.98 51.4199 116.845 61.6775 94.6379 80.3739C72.4308 99.0702 57.5869 124.997 52.7382 153.558L114.195 163.913C116.587 149.821 123.911 137.028 134.869 127.803C145.826 118.578 159.709 113.517 174.055 113.517V51.4199Z" fill="#F8BB03" stroke="white" stroke-width="2.32" mask="url(#path-1-inside-1_4241_27545)"/>
<mask id="path-2-inside-2_4241_27545" fill="white">
<path d="M240.912 70.7486C220.974 57.8281 197.722 50.9564 173.964 50.9634L173.982 113.717C185.623 113.714 197.015 117.081 206.784 123.411L240.912 70.7486Z"/>
</mask>
<path d="M240.912 70.7486C220.974 57.8281 197.722 50.9564 173.964 50.9634L173.982 113.717C185.623 113.714 197.015 117.081 206.784 123.411L240.912 70.7486Z" fill="#2C4D9C" stroke="white" stroke-width="2.32" mask="url(#path-2-inside-2_4241_27545)"/>
<mask id="path-3-inside-3_4241_27545" fill="white">
<path d="M297.094 174C297.094 153.336 291.851 133.007 281.851 114.903C271.852 96.7994 257.421 81.5077 239.899 70.4493L206.467 123.026C215.092 128.47 222.196 135.997 227.118 144.909C232.04 153.821 234.621 163.828 234.621 174L297.094 174Z"/>
</mask>
<path d="M297.094 174C297.094 153.336 291.851 133.007 281.851 114.903C271.852 96.7994 257.421 81.5077 239.899 70.4493L206.467 123.026C215.092 128.47 222.196 135.997 227.118 144.909C232.04 153.821 234.621 163.828 234.621 174L297.094 174Z" fill="#009F44" stroke="white" stroke-width="2.32" mask="url(#path-3-inside-3_4241_27545)"/>
<mask id="path-4-inside-4_4241_27545" fill="white">
<path d="M252.793 268.194C266.902 256.488 278.202 241.784 285.865 225.161C293.528 208.538 297.36 190.417 297.08 172.127L234.152 173.085C234.289 182.02 232.417 190.872 228.674 198.992C224.93 207.113 219.41 214.295 212.518 220.014L252.793 268.194Z"/>
</mask>
<path d="M252.793 268.194C266.902 256.488 278.202 241.784 285.865 225.161C293.528 208.538 297.36 190.417 297.08 172.127L234.152 173.085C234.289 182.02 232.417 190.872 228.674 198.992C224.93 207.113 219.41 214.295 212.518 220.014L252.793 268.194Z" fill="#892A85" stroke="white" stroke-width="2.32" mask="url(#path-4-inside-4_4241_27545)"/>
<mask id="path-5-inside-5_4241_27545" fill="white">
<path d="M52.8573 152.631C48.5225 177.479 51.9864 203.054 62.7764 225.869C73.5663 248.683 91.1572 267.627 113.15 280.116C135.143 292.605 160.467 298.032 185.67 295.656C210.872 293.28 234.725 283.218 253.976 266.841L213.11 219.16C203.706 227.16 192.053 232.076 179.741 233.236C167.43 234.397 155.059 231.746 144.315 225.645C133.571 219.544 124.978 210.29 119.707 199.144C114.436 187.999 112.744 175.505 114.861 163.367L52.8573 152.631Z"/>
</mask>
<path d="M52.8573 152.631C48.5225 177.479 51.9864 203.054 62.7764 225.869C73.5663 248.683 91.1572 267.627 113.15 280.116C135.143 292.605 160.467 298.032 185.67 295.656C210.872 293.28 234.725 283.218 253.976 266.841L213.11 219.16C203.706 227.16 192.053 232.076 179.741 233.236C167.43 234.397 155.059 231.746 144.315 225.645C133.571 219.544 124.978 210.29 119.707 199.144C114.436 187.999 112.744 175.505 114.861 163.367L52.8573 152.631Z" fill="#E42325" stroke="white" stroke-width="2.32" mask="url(#path-5-inside-5_4241_27545)"/>
</svg>
