<svg width="348" height="348" viewBox="0 0 348 348" fill="none" xmlns="http://www.w3.org/2000/svg">
<g filter="url(#filter0_dd_5904_5015)">
<mask id="path-1-inside-1_5904_5015" fill="white">
<path d="M174.055 51.4199C144.98 51.4199 116.845 61.6775 94.6379 80.3739C72.4308 99.0702 57.5869 124.997 52.7382 153.558L114.195 163.913C116.587 149.821 123.911 137.028 134.869 127.803C145.826 118.578 159.709 113.517 174.055 113.517V51.4199Z"/>
</mask>
<path d="M174.055 51.4199C144.98 51.4199 116.845 61.6775 94.6379 80.3739C72.4308 99.0702 57.5869 124.997 52.7382 153.558L114.195 163.913C116.587 149.821 123.911 137.028 134.869 127.803C145.826 118.578 159.709 113.517 174.055 113.517V51.4199Z" fill="#F8BB03" stroke="white" stroke-width="2.32" mask="url(#path-1-inside-1_5904_5015)"/>
<mask id="path-2-inside-2_5904_5015" fill="white">
<path d="M240.912 70.7486C220.974 57.8281 197.722 50.9564 173.964 50.9634L173.982 113.717C185.623 113.714 197.015 117.081 206.784 123.411L240.912 70.7486Z"/>
</mask>
<path d="M240.912 70.7486C220.974 57.8281 197.722 50.9564 173.964 50.9634L173.982 113.717C185.623 113.714 197.015 117.081 206.784 123.411L240.912 70.7486Z" fill="#2C4D9C" stroke="white" stroke-width="2.32" mask="url(#path-2-inside-2_5904_5015)"/>
<mask id="path-3-inside-3_5904_5015" fill="white">
<path d="M297.094 174C297.094 153.336 291.851 133.007 281.851 114.903C271.852 96.7994 257.421 81.5077 239.899 70.4493L206.467 123.026C215.092 128.47 222.196 135.997 227.118 144.909C232.04 153.821 234.621 163.828 234.621 174L297.094 174Z"/>
</mask>
<path d="M297.094 174C297.094 153.336 291.851 133.007 281.851 114.903C271.852 96.7994 257.421 81.5077 239.899 70.4493L206.467 123.026C215.092 128.47 222.196 135.997 227.118 144.909C232.04 153.821 234.621 163.828 234.621 174L297.094 174Z" fill="#009F44" stroke="white" stroke-width="2.32" mask="url(#path-3-inside-3_5904_5015)"/>
<mask id="path-4-inside-4_5904_5015" fill="white">
<path d="M252.793 268.194C266.902 256.488 278.202 241.784 285.865 225.161C293.528 208.538 297.36 190.417 297.08 172.127L234.152 173.085C234.289 182.02 232.417 190.872 228.674 198.992C224.93 207.113 219.41 214.295 212.518 220.014L252.793 268.194Z"/>
</mask>
<path d="M252.793 268.194C266.902 256.488 278.202 241.784 285.865 225.161C293.528 208.538 297.36 190.417 297.08 172.127L234.152 173.085C234.289 182.02 232.417 190.872 228.674 198.992C224.93 207.113 219.41 214.295 212.518 220.014L252.793 268.194Z" fill="#892A85" stroke="white" stroke-width="2.32" mask="url(#path-4-inside-4_5904_5015)"/>
<mask id="path-5-inside-5_5904_5015" fill="white">
<path d="M52.8573 152.631C48.5225 177.479 51.9864 203.054 62.7764 225.869C73.5663 248.683 91.1572 267.627 113.15 280.116C135.143 292.605 160.467 298.032 185.67 295.656C210.872 293.28 234.725 283.218 253.976 266.841L213.11 219.16C203.706 227.16 192.053 232.076 179.741 233.236C167.43 234.397 155.059 231.746 144.315 225.645C133.571 219.544 124.978 210.29 119.707 199.144C114.436 187.999 112.744 175.505 114.861 163.367L52.8573 152.631Z"/>
</mask>
<path d="M52.8573 152.631C48.5225 177.479 51.9864 203.054 62.7764 225.869C73.5663 248.683 91.1572 267.627 113.15 280.116C135.143 292.605 160.467 298.032 185.67 295.656C210.872 293.28 234.725 283.218 253.976 266.841L213.11 219.16C203.706 227.16 192.053 232.076 179.741 233.236C167.43 234.397 155.059 231.746 144.315 225.645C133.571 219.544 124.978 210.29 119.707 199.144C114.436 187.999 112.744 175.505 114.861 163.367L52.8573 152.631Z" fill="#E42325" stroke="white" stroke-width="2.32" mask="url(#path-5-inside-5_5904_5015)"/>
<path d="M97.358 108.788C98.254 108.041 98.968 107.421 99.5 106.926C100.032 106.422 100.475 105.899 100.83 105.358C101.185 104.817 101.362 104.285 101.362 103.762C101.362 103.286 101.25 102.913 101.026 102.642C100.802 102.371 100.457 102.236 99.99 102.236C99.5233 102.236 99.164 102.395 98.912 102.712C98.66 103.02 98.5293 103.445 98.52 103.986H96.616C96.6533 102.866 96.9847 102.017 97.61 101.438C98.2447 100.859 99.0473 100.57 100.018 100.57C101.082 100.57 101.899 100.855 102.468 101.424C103.037 101.984 103.322 102.726 103.322 103.65C103.322 104.378 103.126 105.073 102.734 105.736C102.342 106.399 101.894 106.977 101.39 107.472C100.886 107.957 100.228 108.545 99.416 109.236H103.546V110.86H96.63V109.404L97.358 108.788ZM111.841 102.488H107.305V104.882C107.501 104.639 107.781 104.443 108.145 104.294C108.509 104.135 108.896 104.056 109.307 104.056C110.054 104.056 110.665 104.219 111.141 104.546C111.617 104.873 111.962 105.293 112.177 105.806C112.392 106.31 112.499 106.851 112.499 107.43C112.499 108.503 112.191 109.367 111.575 110.02C110.968 110.673 110.1 111 108.971 111C107.907 111 107.058 110.734 106.423 110.202C105.788 109.67 105.429 108.975 105.345 108.116H107.249C107.333 108.489 107.52 108.788 107.809 109.012C108.108 109.236 108.486 109.348 108.943 109.348C109.494 109.348 109.909 109.175 110.189 108.83C110.469 108.485 110.609 108.027 110.609 107.458C110.609 106.879 110.464 106.441 110.175 106.142C109.895 105.834 109.48 105.68 108.929 105.68C108.537 105.68 108.21 105.778 107.949 105.974C107.688 106.17 107.501 106.431 107.389 106.758H105.513V100.766H111.841V102.488ZM113.967 103.3C113.967 102.591 114.172 102.035 114.583 101.634C115.003 101.233 115.539 101.032 116.193 101.032C116.846 101.032 117.378 101.233 117.789 101.634C118.209 102.035 118.419 102.591 118.419 103.3C118.419 104.019 118.209 104.579 117.789 104.98C117.378 105.381 116.846 105.582 116.193 105.582C115.539 105.582 115.003 105.381 114.583 104.98C114.172 104.579 113.967 104.019 113.967 103.3ZM122.955 101.2L117.453 111H115.549L121.037 101.2H122.955ZM116.179 102.208C115.665 102.208 115.409 102.572 115.409 103.3C115.409 104.037 115.665 104.406 116.179 104.406C116.431 104.406 116.627 104.317 116.767 104.14C116.907 103.953 116.977 103.673 116.977 103.3C116.977 102.572 116.711 102.208 116.179 102.208ZM120.113 108.886C120.113 108.167 120.318 107.612 120.729 107.22C121.149 106.819 121.685 106.618 122.339 106.618C122.992 106.618 123.519 106.819 123.921 107.22C124.331 107.612 124.537 108.167 124.537 108.886C124.537 109.605 124.331 110.165 123.921 110.566C123.519 110.967 122.992 111.168 122.339 111.168C121.676 111.168 121.139 110.967 120.729 110.566C120.318 110.165 120.113 109.605 120.113 108.886ZM122.325 107.794C121.793 107.794 121.527 108.158 121.527 108.886C121.527 109.623 121.793 109.992 122.325 109.992C122.847 109.992 123.109 109.623 123.109 108.886C123.109 108.158 122.847 107.794 122.325 107.794Z" fill="#212121"/>
<path d="M97.358 108.788L96.7178 108.02L96.7121 108.025L97.358 108.788ZM99.5 106.926L100.181 107.658L100.188 107.652L99.5 106.926ZM100.83 105.358L101.666 105.906L100.83 105.358ZM101.026 102.642L100.256 103.28L100.256 103.28L101.026 102.642ZM98.912 102.712L99.686 103.345C99.689 103.341 99.6921 103.338 99.6951 103.334L98.912 102.712ZM98.52 103.986V104.986C99.0656 104.986 99.5104 104.549 99.5199 104.003L98.52 103.986ZM96.616 103.986L95.6166 103.953C95.6075 104.224 95.7088 104.486 95.8972 104.681C96.0856 104.876 96.345 104.986 96.616 104.986V103.986ZM97.61 101.438L96.9362 100.699L96.9308 100.704L97.61 101.438ZM102.468 101.424L101.761 102.131L101.767 102.137L102.468 101.424ZM102.734 105.736L103.595 106.245H103.595L102.734 105.736ZM101.39 107.472L102.084 108.192L102.09 108.186L101.39 107.472ZM99.416 109.236L98.7681 108.474C98.4488 108.746 98.3328 109.188 98.4775 109.581C98.6221 109.975 98.9968 110.236 99.416 110.236V109.236ZM103.546 109.236H104.546C104.546 108.684 104.098 108.236 103.546 108.236V109.236ZM103.546 110.86V111.86C104.098 111.86 104.546 111.412 104.546 110.86H103.546ZM96.63 110.86H95.63C95.63 111.412 96.0777 111.86 96.63 111.86L96.63 110.86ZM96.63 109.404L95.9841 108.641C95.7595 108.831 95.63 109.11 95.63 109.404H96.63ZM97.9982 109.556C98.9009 108.804 99.6302 108.17 100.181 107.658L98.8191 106.194C98.3058 106.671 97.6071 107.279 96.7178 108.02L97.9982 109.556ZM100.188 107.652C100.769 107.102 101.264 106.52 101.666 105.906L99.9935 104.81C99.6865 105.279 99.2952 105.742 98.8123 106.2L100.188 107.652ZM101.666 105.906C102.102 105.241 102.362 104.521 102.362 103.762H100.362C100.362 104.048 100.267 104.393 99.9935 104.81L101.666 105.906ZM102.362 103.762C102.362 103.136 102.214 102.509 101.796 102.004L100.256 103.28C100.286 103.316 100.362 103.436 100.362 103.762H102.362ZM101.796 102.004C101.325 101.434 100.65 101.236 99.99 101.236V103.236C100.129 103.236 100.203 103.257 100.234 103.269C100.249 103.274 100.254 103.278 100.255 103.279C100.255 103.279 100.255 103.278 100.256 103.28L101.796 102.004ZM99.99 101.236C99.2704 101.236 98.6008 101.496 98.1289 102.09L99.6951 103.334C99.7272 103.293 99.7763 103.236 99.99 103.236V101.236ZM98.138 102.079C97.6999 102.614 97.532 103.283 97.5201 103.969L99.5199 104.003C99.5267 103.606 99.6201 103.426 99.686 103.345L98.138 102.079ZM98.52 102.986H96.616V104.986H98.52V102.986ZM97.6154 104.019C97.6468 103.079 97.916 102.517 98.2892 102.172L96.9308 100.704C96.0534 101.516 95.6599 102.653 95.6166 103.953L97.6154 104.019ZM98.2838 102.177C98.71 101.788 99.2617 101.57 100.018 101.57V99.57C98.8329 99.57 97.7794 99.9303 96.9362 100.699L98.2838 102.177ZM100.018 101.57C100.905 101.57 101.433 101.804 101.761 102.131L103.175 100.717C102.364 99.9056 101.259 99.57 100.018 99.57V101.57ZM101.767 102.137C102.115 102.479 102.322 102.948 102.322 103.65H104.322C104.322 102.504 103.96 101.489 103.169 100.711L101.767 102.137ZM102.322 103.65C102.322 104.188 102.18 104.709 101.873 105.227L103.595 106.245C104.072 105.438 104.322 104.568 104.322 103.65H102.322ZM101.873 105.227C101.522 105.821 101.126 106.33 100.69 106.758L102.09 108.186C102.662 107.625 103.162 106.976 103.595 106.245L101.873 105.227ZM100.696 106.752C100.213 107.217 99.5716 107.791 98.7681 108.474L100.064 109.998C100.884 109.3 101.559 108.697 102.084 108.192L100.696 106.752ZM99.416 110.236H103.546V108.236H99.416V110.236ZM102.546 109.236V110.86H104.546V109.236H102.546ZM103.546 109.86H96.63V111.86H103.546V109.86ZM97.63 110.86V109.404H95.63V110.86H97.63ZM97.2759 110.167L98.0039 109.551L96.7121 108.025L95.9841 108.641L97.2759 110.167ZM111.841 102.488V103.488C112.393 103.488 112.841 103.04 112.841 102.488H111.841ZM107.305 102.488V101.488C106.753 101.488 106.305 101.936 106.305 102.488H107.305ZM107.305 104.882H106.305C106.305 105.306 106.572 105.684 106.972 105.825C107.371 105.966 107.817 105.84 108.083 105.51L107.305 104.882ZM108.145 104.294L108.525 105.219C108.531 105.216 108.538 105.214 108.545 105.211L108.145 104.294ZM111.141 104.546L110.575 105.371L111.141 104.546ZM112.177 105.806L111.254 106.192L111.257 106.198L112.177 105.806ZM111.575 110.02L110.847 109.334L110.842 109.34L111.575 110.02ZM106.423 110.202L105.781 110.968L106.423 110.202ZM105.345 108.116V107.116C105.063 107.116 104.794 107.235 104.604 107.444C104.415 107.653 104.322 107.933 104.35 108.213L105.345 108.116ZM107.249 108.116L108.225 107.896C108.122 107.44 107.717 107.116 107.249 107.116V108.116ZM107.809 109.012L107.197 109.803C107.201 109.806 107.205 109.809 107.209 109.812L107.809 109.012ZM110.189 108.83L110.966 109.46L110.189 108.83ZM110.175 106.142L109.435 106.815C109.442 106.822 109.449 106.83 109.457 106.838L110.175 106.142ZM107.949 105.974L107.349 105.174L107.949 105.974ZM107.389 106.758V107.758C107.816 107.758 108.196 107.487 108.335 107.082L107.389 106.758ZM105.513 106.758H104.513C104.513 107.31 104.961 107.758 105.513 107.758V106.758ZM105.513 100.766V99.766C104.961 99.766 104.513 100.214 104.513 100.766H105.513ZM111.841 100.766H112.841C112.841 100.214 112.393 99.766 111.841 99.766V100.766ZM111.841 101.488H107.305V103.488H111.841V101.488ZM106.305 102.488V104.882H108.305V102.488H106.305ZM108.083 105.51C108.149 105.428 108.276 105.321 108.525 105.219L107.766 103.369C107.286 103.566 106.853 103.85 106.527 104.254L108.083 105.51ZM108.545 105.211C108.778 105.109 109.029 105.056 109.307 105.056V103.056C108.764 103.056 108.24 103.162 107.745 103.377L108.545 105.211ZM109.307 105.056C109.911 105.056 110.308 105.187 110.575 105.371L111.707 103.721C111.022 103.251 110.197 103.056 109.307 103.056V105.056ZM110.575 105.371C110.899 105.593 111.117 105.863 111.254 106.192L113.1 105.42C112.808 104.722 112.335 104.153 111.707 103.721L110.575 105.371ZM111.257 106.198C111.416 106.571 111.499 106.978 111.499 107.43H113.499C113.499 106.724 113.367 106.049 113.097 105.414L111.257 106.198ZM111.499 107.43C111.499 108.301 111.255 108.901 110.847 109.334L112.303 110.706C113.127 109.832 113.499 108.705 113.499 107.43H111.499ZM110.842 109.34C110.473 109.738 109.901 110 108.971 110V112C110.3 112 111.464 111.609 112.308 110.7L110.842 109.34ZM108.971 110C108.074 110 107.474 109.778 107.065 109.436L105.781 110.968C106.642 111.69 107.74 112 108.971 112V110ZM107.065 109.436C106.641 109.079 106.4 108.629 106.34 108.019L104.35 108.213C104.458 109.321 104.936 110.261 105.781 110.968L107.065 109.436ZM105.345 109.116H107.249V107.116H105.345V109.116ZM106.273 108.336C106.406 108.924 106.715 109.429 107.197 109.803L108.421 108.221C108.325 108.147 108.26 108.054 108.225 107.896L106.273 108.336ZM107.209 109.812C107.717 110.193 108.319 110.348 108.943 110.348V108.348C108.652 108.348 108.499 108.279 108.409 108.212L107.209 109.812ZM108.943 110.348C109.716 110.348 110.451 110.094 110.966 109.46L109.412 108.2C109.367 108.256 109.271 108.348 108.943 108.348V110.348ZM110.966 109.46C111.427 108.891 111.609 108.191 111.609 107.458H109.609C109.609 107.863 109.511 108.078 109.412 108.2L110.966 109.46ZM111.609 107.458C111.609 106.723 111.424 105.994 110.893 105.446L109.457 106.838C109.505 106.887 109.609 107.036 109.609 107.458H111.609ZM110.915 105.469C110.389 104.891 109.666 104.68 108.929 104.68V106.68C109.294 106.68 109.401 106.777 109.435 106.815L110.915 105.469ZM108.929 104.68C108.365 104.68 107.816 104.824 107.349 105.174L108.549 106.774C108.605 106.732 108.709 106.68 108.929 106.68V104.68ZM107.349 105.174C106.918 105.497 106.616 105.929 106.443 106.434L108.335 107.082C108.386 106.934 108.458 106.843 108.549 106.774L107.349 105.174ZM107.389 105.758H105.513V107.758H107.389V105.758ZM106.513 106.758V100.766H104.513V106.758H106.513ZM105.513 101.766H111.841V99.766H105.513V101.766ZM110.841 100.766V102.488H112.841V100.766H110.841ZM114.583 101.634L113.892 100.911L113.884 100.919L114.583 101.634ZM117.789 101.634L117.09 102.349L117.098 102.357L117.789 101.634ZM117.789 104.98L117.098 104.257L117.09 104.265L117.789 104.98ZM114.583 104.98L113.884 105.695L113.892 105.703L114.583 104.98ZM122.955 101.2L123.827 101.69C124.001 101.38 123.997 101.001 123.818 100.695C123.638 100.388 123.31 100.2 122.955 100.2V101.2ZM117.453 111V112C117.814 112 118.148 111.805 118.325 111.49L117.453 111ZM115.549 111L114.676 110.511C114.503 110.821 114.507 111.199 114.686 111.506C114.866 111.812 115.194 112 115.549 112V111ZM121.037 101.2V100.2C120.675 100.2 120.341 100.396 120.164 100.711L121.037 101.2ZM116.767 104.14L117.552 104.76C117.557 104.753 117.562 104.747 117.567 104.74L116.767 104.14ZM120.729 107.22L121.419 107.943L121.42 107.943L120.729 107.22ZM123.921 107.22L123.214 107.927C123.219 107.933 123.225 107.938 123.23 107.943L123.921 107.22ZM123.921 110.566L123.222 109.851L123.214 109.859L123.921 110.566ZM120.729 110.566L121.428 109.851L120.729 110.566ZM114.967 103.3C114.967 102.792 115.107 102.52 115.282 102.349L113.884 100.919C113.237 101.551 112.967 102.389 112.967 103.3H114.967ZM115.274 102.357C115.484 102.156 115.762 102.032 116.193 102.032V100.032C115.317 100.032 114.522 100.309 113.892 100.911L115.274 102.357ZM116.193 102.032C116.624 102.032 116.892 102.156 117.09 102.349L118.488 100.919C117.864 100.309 117.068 100.032 116.193 100.032V102.032ZM117.098 102.357C117.278 102.529 117.419 102.799 117.419 103.3H119.419C119.419 102.382 119.139 101.541 118.48 100.911L117.098 102.357ZM117.419 103.3C117.419 103.815 117.276 104.087 117.098 104.257L118.48 105.703C119.142 105.07 119.419 104.223 119.419 103.3H117.419ZM117.09 104.265C116.892 104.458 116.624 104.582 116.193 104.582V106.582C117.068 106.582 117.864 106.305 118.488 105.695L117.09 104.265ZM116.193 104.582C115.762 104.582 115.484 104.458 115.274 104.257L113.892 105.703C114.522 106.305 115.317 106.582 116.193 106.582V104.582ZM115.282 104.265C115.11 104.096 114.967 103.821 114.967 103.3H112.967C112.967 104.216 113.235 105.061 113.884 105.695L115.282 104.265ZM122.083 100.71L116.581 110.51L118.325 111.49L123.827 101.69L122.083 100.71ZM117.453 110H115.549V112H117.453V110ZM116.421 111.489L121.909 101.689L120.164 100.711L114.676 110.511L116.421 111.489ZM121.037 102.2H122.955V100.2H121.037V102.2ZM116.179 101.208C115.654 101.208 115.13 101.414 114.784 101.905C114.483 102.332 114.409 102.849 114.409 103.3H116.409C116.409 103.174 116.42 103.094 116.43 103.051C116.44 103.008 116.445 103.02 116.419 103.057C116.388 103.101 116.336 103.149 116.269 103.18C116.207 103.21 116.168 103.208 116.179 103.208V101.208ZM114.409 103.3C114.409 103.754 114.482 104.272 114.781 104.701C115.125 105.195 115.649 105.406 116.179 105.406V103.406C116.17 103.406 116.211 103.405 116.274 103.435C116.342 103.468 116.393 103.516 116.422 103.558C116.447 103.594 116.442 103.604 116.431 103.558C116.42 103.512 116.409 103.43 116.409 103.3H114.409ZM116.179 105.406C116.697 105.406 117.198 105.207 117.552 104.76L115.982 103.52C116.006 103.49 116.048 103.453 116.103 103.428C116.154 103.405 116.187 103.406 116.179 103.406V105.406ZM117.567 104.74C117.894 104.304 117.977 103.769 117.977 103.3H115.977C115.977 103.427 115.965 103.506 115.954 103.547C115.944 103.588 115.94 103.575 115.967 103.54L117.567 104.74ZM117.977 103.3C117.977 102.844 117.899 102.321 117.585 101.891C117.228 101.403 116.699 101.208 116.179 101.208V103.208C116.199 103.208 116.168 103.211 116.113 103.186C116.052 103.158 116.002 103.114 115.97 103.071C115.943 103.034 115.946 103.019 115.955 103.059C115.965 103.099 115.977 103.176 115.977 103.3H117.977ZM121.113 108.886C121.113 108.364 121.256 108.099 121.419 107.943L120.038 106.497C119.38 107.125 119.113 107.971 119.113 108.886H121.113ZM121.42 107.943C121.63 107.742 121.908 107.618 122.339 107.618V105.618C121.463 105.618 120.668 105.895 120.038 106.497L121.42 107.943ZM122.339 107.618C122.77 107.618 123.029 107.742 123.214 107.927L124.628 106.513C124.01 105.895 123.214 105.618 122.339 105.618V107.618ZM123.23 107.943C123.394 108.099 123.537 108.364 123.537 108.886H125.537C125.537 107.971 125.269 107.125 124.611 106.497L123.23 107.943ZM123.537 108.886C123.537 109.407 123.394 109.682 123.222 109.851L124.62 111.281C125.269 110.647 125.537 109.802 125.537 108.886H123.537ZM123.214 109.859C123.029 110.044 122.77 110.168 122.339 110.168V112.168C123.214 112.168 124.01 111.891 124.628 111.273L123.214 109.859ZM122.339 110.168C121.894 110.168 121.623 110.041 121.428 109.851L120.03 111.281C120.656 111.893 121.458 112.168 122.339 112.168V110.168ZM121.428 109.851C121.256 109.682 121.113 109.407 121.113 108.886H119.113C119.113 109.802 119.381 110.647 120.03 111.281L121.428 109.851ZM122.325 106.794C121.805 106.794 121.276 106.989 120.919 107.477C120.605 107.907 120.527 108.43 120.527 108.886H122.527C122.527 108.762 122.539 108.685 122.548 108.645C122.558 108.605 122.561 108.62 122.534 108.657C122.502 108.7 122.452 108.744 122.391 108.772C122.335 108.797 122.305 108.794 122.325 108.794V106.794ZM120.527 108.886C120.527 109.345 120.604 109.869 120.915 110.301C121.27 110.792 121.8 110.992 122.325 110.992V108.992C122.307 108.992 122.339 108.989 122.395 109.015C122.457 109.044 122.507 109.088 122.537 109.13C122.563 109.167 122.559 109.178 122.549 109.136C122.539 109.093 122.527 109.013 122.527 108.886H120.527ZM122.325 110.992C122.852 110.992 123.379 110.787 123.729 110.294C124.033 109.864 124.109 109.342 124.109 108.886H122.109C122.109 109.014 122.097 109.095 122.087 109.14C122.076 109.184 122.072 109.173 122.097 109.137C122.127 109.095 122.177 109.048 122.242 109.018C122.302 108.99 122.338 108.992 122.325 108.992V110.992ZM124.109 108.886C124.109 108.432 124.033 107.912 123.725 107.484C123.374 106.994 122.847 106.794 122.325 106.794V108.794C122.34 108.794 122.305 108.796 122.247 108.769C122.183 108.74 122.132 108.694 122.101 108.65C122.074 108.613 122.077 108.6 122.087 108.641C122.097 108.683 122.109 108.761 122.109 108.886H124.109Z" fill="white"/>
<path d="M106.658 251.012V249.472L111.236 242.92H113.518V249.304H114.75V251.012H113.518V253H111.558V251.012H106.658ZM111.684 245.02L108.814 249.304H111.684V245.02ZM116.198 247.764C116.198 246.149 116.487 244.885 117.066 243.97C117.654 243.055 118.625 242.598 119.978 242.598C121.331 242.598 122.297 243.055 122.876 243.97C123.464 244.885 123.758 246.149 123.758 247.764C123.758 249.388 123.464 250.662 122.876 251.586C122.297 252.51 121.331 252.972 119.978 252.972C118.625 252.972 117.654 252.51 117.066 251.586C116.487 250.662 116.198 249.388 116.198 247.764ZM121.826 247.764C121.826 247.073 121.779 246.495 121.686 246.028C121.602 245.552 121.425 245.165 121.154 244.866C120.893 244.567 120.501 244.418 119.978 244.418C119.455 244.418 119.059 244.567 118.788 244.866C118.527 245.165 118.349 245.552 118.256 246.028C118.172 246.495 118.13 247.073 118.13 247.764C118.13 248.473 118.172 249.071 118.256 249.556C118.34 250.032 118.517 250.419 118.788 250.718C119.059 251.007 119.455 251.152 119.978 251.152C120.501 251.152 120.897 251.007 121.168 250.718C121.439 250.419 121.616 250.032 121.7 249.556C121.784 249.071 121.826 248.473 121.826 247.764ZM125.225 245.3C125.225 244.591 125.43 244.035 125.841 243.634C126.261 243.233 126.797 243.032 127.451 243.032C128.104 243.032 128.636 243.233 129.047 243.634C129.467 244.035 129.677 244.591 129.677 245.3C129.677 246.019 129.467 246.579 129.047 246.98C128.636 247.381 128.104 247.582 127.451 247.582C126.797 247.582 126.261 247.381 125.841 246.98C125.43 246.579 125.225 246.019 125.225 245.3ZM134.213 243.2L128.711 253H126.807L132.295 243.2H134.213ZM127.437 244.208C126.923 244.208 126.667 244.572 126.667 245.3C126.667 246.037 126.923 246.406 127.437 246.406C127.689 246.406 127.885 246.317 128.025 246.14C128.165 245.953 128.235 245.673 128.235 245.3C128.235 244.572 127.969 244.208 127.437 244.208ZM131.371 250.886C131.371 250.167 131.576 249.612 131.987 249.22C132.407 248.819 132.943 248.618 133.597 248.618C134.25 248.618 134.777 248.819 135.179 249.22C135.589 249.612 135.795 250.167 135.795 250.886C135.795 251.605 135.589 252.165 135.179 252.566C134.777 252.967 134.25 253.168 133.597 253.168C132.934 253.168 132.397 252.967 131.987 252.566C131.576 252.165 131.371 251.605 131.371 250.886ZM133.583 249.794C133.051 249.794 132.785 250.158 132.785 250.886C132.785 251.623 133.051 251.992 133.583 251.992C134.105 251.992 134.367 251.623 134.367 250.886C134.367 250.158 134.105 249.794 133.583 249.794Z" fill="#212121"/>
<path d="M106.658 251.012H105.658C105.658 251.564 106.106 252.012 106.658 252.012V251.012ZM106.658 249.472L105.838 248.899C105.721 249.067 105.658 249.267 105.658 249.472H106.658ZM111.236 242.92V241.92C110.909 241.92 110.603 242.08 110.416 242.347L111.236 242.92ZM113.518 242.92H114.518C114.518 242.368 114.07 241.92 113.518 241.92V242.92ZM113.518 249.304H112.518C112.518 249.856 112.966 250.304 113.518 250.304V249.304ZM114.75 249.304H115.75C115.75 248.752 115.302 248.304 114.75 248.304V249.304ZM114.75 251.012V252.012C115.302 252.012 115.75 251.564 115.75 251.012H114.75ZM113.518 251.012V250.012C112.966 250.012 112.518 250.46 112.518 251.012H113.518ZM113.518 253V254C114.07 254 114.518 253.552 114.518 253H113.518ZM111.558 253H110.558C110.558 253.552 111.006 254 111.558 254V253ZM111.558 251.012H112.558C112.558 250.46 112.11 250.012 111.558 250.012V251.012ZM111.684 245.02H112.684C112.684 244.58 112.396 244.191 111.975 244.063C111.554 243.935 111.098 244.098 110.853 244.463L111.684 245.02ZM108.814 249.304L107.983 248.747C107.778 249.054 107.758 249.449 107.932 249.775C108.106 250.101 108.445 250.304 108.814 250.304V249.304ZM111.684 249.304V250.304C112.236 250.304 112.684 249.856 112.684 249.304H111.684ZM107.658 251.012V249.472H105.658V251.012H107.658ZM107.478 250.045L112.056 243.493L110.416 242.347L105.838 248.899L107.478 250.045ZM111.236 243.92H113.518V241.92H111.236V243.92ZM112.518 242.92V249.304H114.518V242.92H112.518ZM113.518 250.304H114.75V248.304H113.518V250.304ZM113.75 249.304V251.012H115.75V249.304H113.75ZM114.75 250.012H113.518V252.012H114.75V250.012ZM112.518 251.012V253H114.518V251.012H112.518ZM113.518 252H111.558V254H113.518V252ZM112.558 253V251.012H110.558V253H112.558ZM111.558 250.012H106.658V252.012H111.558V250.012ZM110.853 244.463L107.983 248.747L109.645 249.861L112.515 245.577L110.853 244.463ZM108.814 250.304H111.684V248.304H108.814V250.304ZM112.684 249.304V245.02H110.684V249.304H112.684ZM117.066 243.97L116.225 243.429L116.221 243.435L117.066 243.97ZM122.876 243.97L122.031 244.505L122.035 244.511L122.876 243.97ZM122.876 251.586L122.032 251.049L122.028 251.055L122.876 251.586ZM117.066 251.586L116.218 252.117L116.222 252.123L117.066 251.586ZM121.686 246.028L120.701 246.202C120.702 246.209 120.704 246.217 120.705 246.224L121.686 246.028ZM121.154 244.866L120.401 245.525C120.405 245.529 120.409 245.533 120.413 245.538L121.154 244.866ZM118.788 244.866L118.047 244.194C118.043 244.199 118.039 244.203 118.035 244.207L118.788 244.866ZM118.256 246.028L117.275 245.836C117.274 245.841 117.273 245.846 117.272 245.851L118.256 246.028ZM118.256 249.556L117.271 249.727L117.271 249.73L118.256 249.556ZM118.788 250.718L118.047 251.39C118.05 251.393 118.054 251.397 118.058 251.401L118.788 250.718ZM121.168 250.718L121.898 251.401C121.902 251.397 121.905 251.393 121.909 251.39L121.168 250.718ZM121.7 249.556L122.685 249.73L122.685 249.727L121.7 249.556ZM117.198 247.764C117.198 246.252 117.472 245.199 117.911 244.505L116.221 243.435C115.503 244.57 115.198 246.047 115.198 247.764H117.198ZM117.907 244.511C118.265 243.954 118.87 243.598 119.978 243.598V241.598C118.379 241.598 117.043 242.157 116.225 243.429L117.907 244.511ZM119.978 243.598C121.087 243.598 121.682 243.954 122.031 244.505L123.721 243.435C122.912 242.157 121.576 241.598 119.978 241.598V243.598ZM122.035 244.511C122.48 245.204 122.758 246.254 122.758 247.764H124.758C124.758 246.045 124.448 244.566 123.717 243.429L122.035 244.511ZM122.758 247.764C122.758 249.284 122.48 250.345 122.032 251.049L123.72 252.123C124.448 250.979 124.758 249.492 124.758 247.764H122.758ZM122.028 251.055C121.678 251.615 121.082 251.972 119.978 251.972V253.972C121.58 253.972 122.916 253.405 123.723 252.117L122.028 251.055ZM119.978 251.972C118.874 251.972 118.269 251.614 117.91 251.049L116.222 252.123C117.038 253.406 118.375 253.972 119.978 253.972V251.972ZM117.913 251.055C117.472 250.35 117.198 249.286 117.198 247.764H115.198C115.198 249.49 115.503 250.974 116.218 252.117L117.913 251.055ZM122.826 247.764C122.826 247.034 122.777 246.385 122.666 245.832L120.705 246.224C120.781 246.604 120.826 247.113 120.826 247.764H122.826ZM122.671 245.854C122.56 245.23 122.315 244.658 121.895 244.194L120.413 245.538C120.534 245.671 120.643 245.874 120.701 246.202L122.671 245.854ZM121.906 244.207C121.4 243.628 120.692 243.418 119.978 243.418V245.418C120.309 245.418 120.385 245.506 120.401 245.525L121.906 244.207ZM119.978 243.418C119.262 243.418 118.559 243.629 118.047 244.194L119.529 245.538C119.558 245.506 119.649 245.418 119.978 245.418V243.418ZM118.035 244.207C117.635 244.665 117.394 245.225 117.275 245.836L119.237 246.22C119.304 245.879 119.418 245.664 119.54 245.525L118.035 244.207ZM117.272 245.851C117.174 246.396 117.13 247.038 117.13 247.764H119.13C119.13 247.108 119.17 246.594 119.24 246.205L117.272 245.851ZM117.13 247.764C117.13 248.508 117.174 249.166 117.271 249.727L119.241 249.385C119.17 248.975 119.13 248.439 119.13 247.764H117.13ZM117.271 249.73C117.381 250.354 117.626 250.926 118.047 251.39L119.529 250.046C119.408 249.913 119.298 249.71 119.241 249.382L117.271 249.73ZM118.058 251.401C118.572 251.952 119.271 252.152 119.978 252.152V250.152C119.639 250.152 119.545 250.063 119.518 250.035L118.058 251.401ZM119.978 252.152C120.685 252.152 121.383 251.952 121.898 251.401L120.438 250.035C120.411 250.063 120.316 250.152 119.978 250.152V252.152ZM121.909 251.39C122.329 250.926 122.574 250.354 122.685 249.73L120.715 249.382C120.657 249.71 120.548 249.913 120.427 250.046L121.909 251.39ZM122.685 249.727C122.782 249.166 122.826 248.508 122.826 247.764H120.826C120.826 248.439 120.786 248.975 120.715 249.385L122.685 249.727ZM125.841 243.634L125.15 242.911L125.142 242.919L125.841 243.634ZM129.047 243.634L128.348 244.349L128.356 244.357L129.047 243.634ZM129.047 246.98L128.356 246.257L128.348 246.265L129.047 246.98ZM125.841 246.98L125.142 247.695L125.15 247.703L125.841 246.98ZM134.213 243.2L135.085 243.69C135.258 243.38 135.255 243.001 135.076 242.695C134.896 242.388 134.568 242.2 134.213 242.2V243.2ZM128.711 253V254C129.072 254 129.406 253.805 129.583 253.49L128.711 253ZM126.807 253L125.934 252.511C125.761 252.821 125.764 253.199 125.944 253.506C126.123 253.812 126.452 254 126.807 254V253ZM132.295 243.2V242.2C131.933 242.2 131.599 242.396 131.422 242.711L132.295 243.2ZM128.025 246.14L128.81 246.76C128.815 246.753 128.82 246.747 128.825 246.74L128.025 246.14ZM131.987 249.22L132.677 249.943L132.677 249.943L131.987 249.22ZM135.179 249.22L134.472 249.927C134.477 249.933 134.483 249.938 134.488 249.943L135.179 249.22ZM135.179 252.566L134.48 251.851L134.472 251.859L135.179 252.566ZM131.987 252.566L132.686 251.851L131.987 252.566ZM126.225 245.3C126.225 244.792 126.365 244.52 126.54 244.349L125.142 242.919C124.495 243.551 124.225 244.389 124.225 245.3H126.225ZM126.531 244.357C126.742 244.156 127.02 244.032 127.451 244.032V242.032C126.575 242.032 125.78 242.309 125.15 242.911L126.531 244.357ZM127.451 244.032C127.882 244.032 128.15 244.156 128.348 244.349L129.746 242.919C129.122 242.309 128.326 242.032 127.451 242.032V244.032ZM128.356 244.357C128.536 244.529 128.677 244.799 128.677 245.3H130.677C130.677 244.382 130.397 243.541 129.737 242.911L128.356 244.357ZM128.677 245.3C128.677 245.815 128.533 246.087 128.356 246.257L129.737 247.703C130.4 247.07 130.677 246.223 130.677 245.3H128.677ZM128.348 246.265C128.15 246.458 127.882 246.582 127.451 246.582V248.582C128.326 248.582 129.122 248.305 129.746 247.695L128.348 246.265ZM127.451 246.582C127.02 246.582 126.742 246.458 126.531 246.257L125.15 247.703C125.78 248.305 126.575 248.582 127.451 248.582V246.582ZM126.54 246.265C126.367 246.096 126.225 245.821 126.225 245.3H124.225C124.225 246.216 124.493 247.061 125.142 247.695L126.54 246.265ZM133.341 242.71L127.839 252.51L129.583 253.49L135.085 243.69L133.341 242.71ZM128.711 252H126.807V254H128.711V252ZM127.679 253.489L133.167 243.689L131.422 242.711L125.934 252.511L127.679 253.489ZM132.295 244.2H134.213V242.2H132.295V244.2ZM127.437 243.208C126.912 243.208 126.388 243.414 126.042 243.905C125.741 244.332 125.667 244.849 125.667 245.3H127.667C127.667 245.174 127.678 245.094 127.688 245.051C127.698 245.008 127.703 245.02 127.676 245.057C127.646 245.101 127.594 245.149 127.527 245.18C127.465 245.21 127.426 245.208 127.437 245.208V243.208ZM125.667 245.3C125.667 245.754 125.74 246.272 126.038 246.701C126.383 247.195 126.907 247.406 127.437 247.406V245.406C127.428 245.406 127.468 245.405 127.532 245.435C127.6 245.468 127.651 245.516 127.68 245.558C127.705 245.594 127.7 245.604 127.689 245.558C127.678 245.512 127.667 245.43 127.667 245.3H125.667ZM127.437 247.406C127.954 247.406 128.456 247.207 128.81 246.76L127.24 245.52C127.264 245.49 127.305 245.453 127.36 245.428C127.412 245.405 127.445 245.406 127.437 245.406V247.406ZM128.825 246.74C129.152 246.304 129.235 245.769 129.235 245.3H127.235C127.235 245.427 127.222 245.506 127.212 245.547C127.202 245.588 127.198 245.575 127.225 245.54L128.825 246.74ZM129.235 245.3C129.235 244.844 129.157 244.321 128.843 243.891C128.486 243.403 127.957 243.208 127.437 243.208V245.208C127.456 245.208 127.426 245.211 127.371 245.186C127.31 245.158 127.259 245.114 127.228 245.071C127.2 245.034 127.204 245.019 127.213 245.059C127.223 245.099 127.235 245.176 127.235 245.3H129.235ZM132.371 250.886C132.371 250.364 132.514 250.099 132.677 249.943L131.296 248.497C130.638 249.125 130.371 249.971 130.371 250.886H132.371ZM132.677 249.943C132.888 249.742 133.166 249.618 133.597 249.618V247.618C132.721 247.618 131.926 247.895 131.296 248.497L132.677 249.943ZM133.597 249.618C134.028 249.618 134.286 249.742 134.472 249.927L135.886 248.513C135.268 247.895 134.472 247.618 133.597 247.618V249.618ZM134.488 249.943C134.652 250.099 134.795 250.364 134.795 250.886H136.795C136.795 249.971 136.527 249.125 135.869 248.497L134.488 249.943ZM134.795 250.886C134.795 251.407 134.652 251.682 134.48 251.851L135.878 253.281C136.527 252.647 136.795 251.802 136.795 250.886H134.795ZM134.472 251.859C134.286 252.044 134.028 252.168 133.597 252.168V254.168C134.472 254.168 135.268 253.891 135.886 253.273L134.472 251.859ZM133.597 252.168C133.152 252.168 132.88 252.041 132.686 251.851L131.288 253.281C131.914 253.893 132.716 254.168 133.597 254.168V252.168ZM132.686 251.851C132.513 251.682 132.371 251.407 132.371 250.886H130.371C130.371 251.802 130.639 252.647 131.288 253.281L132.686 251.851ZM133.583 248.794C133.063 248.794 132.533 248.989 132.177 249.477C131.863 249.907 131.785 250.43 131.785 250.886H133.785C133.785 250.762 133.796 250.685 133.806 250.645C133.816 250.605 133.819 250.62 133.792 250.657C133.76 250.7 133.709 250.744 133.649 250.772C133.593 250.797 133.563 250.794 133.583 250.794V248.794ZM131.785 250.886C131.785 251.345 131.862 251.869 132.173 252.301C132.528 252.792 133.058 252.992 133.583 252.992V250.992C133.565 250.992 133.596 250.989 133.653 251.015C133.715 251.044 133.765 251.088 133.795 251.13C133.821 251.167 133.817 251.178 133.807 251.136C133.796 251.093 133.785 251.013 133.785 250.886H131.785ZM133.583 252.992C134.11 252.992 134.637 252.787 134.986 252.294C135.291 251.864 135.367 251.342 135.367 250.886H133.367C133.367 251.014 133.355 251.095 133.344 251.14C133.334 251.184 133.329 251.173 133.355 251.137C133.385 251.095 133.435 251.048 133.5 251.018C133.56 250.99 133.596 250.992 133.583 250.992V252.992ZM135.367 250.886C135.367 250.432 135.291 249.912 134.983 249.484C134.631 248.994 134.105 248.794 133.583 248.794V250.794C133.598 250.794 133.563 250.796 133.505 250.769C133.441 250.74 133.39 250.694 133.358 250.65C133.332 250.613 133.335 250.6 133.345 250.641C133.355 250.683 133.367 250.761 133.367 250.886H135.367Z" fill="white"/>
<path d="M196.602 82.488H192.066V84.882C192.262 84.6393 192.542 84.4433 192.906 84.294C193.27 84.1353 193.657 84.056 194.068 84.056C194.815 84.056 195.426 84.2193 195.902 84.546C196.378 84.8727 196.723 85.2927 196.938 85.806C197.153 86.31 197.26 86.8513 197.26 87.43C197.26 88.5033 196.952 89.3667 196.336 90.02C195.729 90.6733 194.861 91 193.732 91C192.668 91 191.819 90.734 191.184 90.202C190.549 89.67 190.19 88.9747 190.106 88.116H192.01C192.094 88.4893 192.281 88.788 192.57 89.012C192.869 89.236 193.247 89.348 193.704 89.348C194.255 89.348 194.67 89.1753 194.95 88.83C195.23 88.4847 195.37 88.0273 195.37 87.458C195.37 86.8793 195.225 86.4407 194.936 86.142C194.656 85.834 194.241 85.68 193.69 85.68C193.298 85.68 192.971 85.778 192.71 85.974C192.449 86.17 192.262 86.4313 192.15 86.758H190.274V80.766H196.602V82.488ZM198.728 83.3C198.728 82.5907 198.933 82.0353 199.344 81.634C199.764 81.2327 200.3 81.032 200.954 81.032C201.607 81.032 202.139 81.2327 202.55 81.634C202.97 82.0353 203.18 82.5907 203.18 83.3C203.18 84.0187 202.97 84.5787 202.55 84.98C202.139 85.3813 201.607 85.582 200.954 85.582C200.3 85.582 199.764 85.3813 199.344 84.98C198.933 84.5787 198.728 84.0187 198.728 83.3ZM207.716 81.2L202.214 91H200.31L205.798 81.2H207.716ZM200.94 82.208C200.426 82.208 200.17 82.572 200.17 83.3C200.17 84.0373 200.426 84.406 200.94 84.406C201.192 84.406 201.388 84.3173 201.528 84.14C201.668 83.9533 201.738 83.6733 201.738 83.3C201.738 82.572 201.472 82.208 200.94 82.208ZM204.874 88.886C204.874 88.1673 205.079 87.612 205.49 87.22C205.91 86.8187 206.446 86.618 207.1 86.618C207.753 86.618 208.28 86.8187 208.682 87.22C209.092 87.612 209.298 88.1673 209.298 88.886C209.298 89.6047 209.092 90.1647 208.682 90.566C208.28 90.9673 207.753 91.168 207.1 91.168C206.437 91.168 205.9 90.9673 205.49 90.566C205.079 90.1647 204.874 89.6047 204.874 88.886ZM207.086 87.794C206.554 87.794 206.288 88.158 206.288 88.886C206.288 89.6233 206.554 89.992 207.086 89.992C207.608 89.992 207.87 89.6233 207.87 88.886C207.87 88.158 207.608 87.794 207.086 87.794Z" fill="#212121"/>
<path d="M196.602 82.488V83.488C197.154 83.488 197.602 83.0403 197.602 82.488H196.602ZM192.066 82.488V81.488C191.514 81.488 191.066 81.9357 191.066 82.488H192.066ZM192.066 84.882H191.066C191.066 85.3058 191.333 85.6836 191.733 85.8249C192.132 85.9661 192.578 85.8401 192.844 85.5103L192.066 84.882ZM192.906 84.294L193.286 85.2192C193.292 85.2164 193.299 85.2136 193.306 85.2107L192.906 84.294ZM195.902 84.546L195.336 85.3705L195.902 84.546ZM196.938 85.806L196.015 86.1918L196.018 86.1979L196.938 85.806ZM196.336 90.02L195.608 89.334L195.603 89.3395L196.336 90.02ZM191.184 90.202L190.542 90.9684L191.184 90.202ZM190.106 88.116V87.116C189.824 87.116 189.555 87.2352 189.365 87.4442C189.176 87.6532 189.083 87.9325 189.111 88.2134L190.106 88.116ZM192.01 88.116L192.986 87.8965C192.883 87.4402 192.478 87.116 192.01 87.116V88.116ZM192.57 89.012L191.958 89.8027C191.962 89.8058 191.966 89.8089 191.97 89.812L192.57 89.012ZM194.95 88.83L195.727 89.4598H195.727L194.95 88.83ZM194.936 86.142L194.196 86.8147C194.203 86.8225 194.21 86.8302 194.218 86.8378L194.936 86.142ZM192.71 85.974L192.11 85.174L192.71 85.974ZM192.15 86.758V87.758C192.577 87.758 192.957 87.4865 193.096 87.0823L192.15 86.758ZM190.274 86.758H189.274C189.274 87.3103 189.722 87.758 190.274 87.758V86.758ZM190.274 80.766V79.766C189.722 79.766 189.274 80.2137 189.274 80.766H190.274ZM196.602 80.766H197.602C197.602 80.2137 197.154 79.766 196.602 79.766V80.766ZM196.602 81.488H192.066V83.488H196.602V81.488ZM191.066 82.488V84.882H193.066V82.488H191.066ZM192.844 85.5103C192.91 85.4284 193.037 85.321 193.286 85.2192L192.526 83.3688C192.047 83.5657 191.614 83.8502 191.288 84.2537L192.844 85.5103ZM193.306 85.2107C193.539 85.1089 193.79 85.056 194.068 85.056V83.056C193.525 83.056 193.001 83.1618 192.506 83.3773L193.306 85.2107ZM194.068 85.056C194.672 85.056 195.069 85.1875 195.336 85.3705L196.468 83.7215C195.783 83.2512 194.958 83.056 194.068 83.056V85.056ZM195.336 85.3705C195.66 85.5926 195.878 85.8629 196.015 86.1918L197.861 85.4202C197.569 84.7224 197.096 84.1527 196.468 83.7215L195.336 85.3705ZM196.018 86.1979C196.177 86.5711 196.26 86.9783 196.26 87.43H198.26C198.26 86.7244 198.128 86.0489 197.858 85.4141L196.018 86.1979ZM196.26 87.43C196.26 88.3012 196.016 88.9014 195.608 89.334L197.064 90.706C197.888 89.8319 198.26 88.7055 198.26 87.43H196.26ZM195.603 89.3395C195.233 89.7377 194.662 90 193.732 90V92C195.06 92 196.225 91.609 197.069 90.7005L195.603 89.3395ZM193.732 90C192.835 90 192.235 89.778 191.826 89.4356L190.542 90.9684C191.402 91.69 192.501 92 193.732 92V90ZM191.826 89.4356C191.402 89.0795 191.161 88.6288 191.101 88.0186L189.111 88.2134C189.219 89.3205 189.697 90.2605 190.542 90.9684L191.826 89.4356ZM190.106 89.116H192.01V87.116H190.106V89.116ZM191.034 88.3355C191.167 88.9245 191.476 89.4295 191.958 89.8027L193.182 88.2213C193.086 88.1465 193.021 88.0542 192.986 87.8965L191.034 88.3355ZM191.97 89.812C192.478 90.1928 193.08 90.348 193.704 90.348V88.348C193.413 88.348 193.26 88.2792 193.17 88.212L191.97 89.812ZM193.704 90.348C194.477 90.348 195.212 90.0944 195.727 89.4598L194.173 88.2002C194.128 88.2562 194.032 88.348 193.704 88.348V90.348ZM195.727 89.4598C196.188 88.8914 196.37 88.1912 196.37 87.458H194.37C194.37 87.8634 194.272 88.0779 194.173 88.2002L195.727 89.4598ZM196.37 87.458C196.37 86.7226 196.185 85.9942 195.654 85.4462L194.218 86.8378C194.266 86.8872 194.37 87.0361 194.37 87.458H196.37ZM195.676 85.4693C195.15 84.8912 194.427 84.68 193.69 84.68V86.68C194.055 86.68 194.162 86.7768 194.196 86.8147L195.676 85.4693ZM193.69 84.68C193.126 84.68 192.577 84.8238 192.11 85.174L193.31 86.774C193.366 86.7322 193.47 86.68 193.69 86.68V84.68ZM192.11 85.174C191.679 85.4973 191.377 85.9288 191.204 86.4337L193.096 87.0823C193.147 86.9339 193.218 86.8427 193.31 86.774L192.11 85.174ZM192.15 85.758H190.274V87.758H192.15V85.758ZM191.274 86.758V80.766H189.274V86.758H191.274ZM190.274 81.766H196.602V79.766H190.274V81.766ZM195.602 80.766V82.488H197.602V80.766H195.602ZM199.344 81.634L198.653 80.911L198.645 80.9188L199.344 81.634ZM202.55 81.634L201.851 82.3492L201.859 82.357L202.55 81.634ZM202.55 84.98L201.859 84.257L201.851 84.2648L202.55 84.98ZM199.344 84.98L198.645 85.6952L198.653 85.703L199.344 84.98ZM207.716 81.2L208.588 81.6896C208.762 81.3799 208.758 81.0013 208.579 80.6948C208.399 80.3883 208.071 80.2 207.716 80.2V81.2ZM202.214 91V92C202.575 92 202.909 91.8048 203.086 91.4896L202.214 91ZM200.31 91L199.437 90.5114C199.264 90.8211 199.268 91.1995 199.447 91.5057C199.627 91.8119 199.955 92 200.31 92V91ZM205.798 81.2V80.2C205.436 80.2 205.102 80.3956 204.925 80.7114L205.798 81.2ZM201.528 84.14L202.313 84.7596C202.318 84.7532 202.323 84.7466 202.328 84.74L201.528 84.14ZM205.49 87.22L206.18 87.9434L206.181 87.943L205.49 87.22ZM208.682 87.22L207.975 87.9271C207.98 87.9326 207.986 87.938 207.991 87.9434L208.682 87.22ZM208.682 90.566L207.983 89.8508L207.975 89.8589L208.682 90.566ZM205.49 90.566L206.189 89.8508H206.189L205.49 90.566ZM199.728 83.3C199.728 82.7924 199.868 82.52 200.043 82.3492L198.645 80.9188C197.998 81.5507 197.728 82.3889 197.728 83.3H199.728ZM200.035 82.357C200.245 82.1561 200.523 82.032 200.954 82.032V80.032C200.078 80.032 199.283 80.3092 198.653 80.911L200.035 82.357ZM200.954 82.032C201.385 82.032 201.653 82.156 201.851 82.3492L203.249 80.9188C202.625 80.3093 201.829 80.032 200.954 80.032V82.032ZM201.859 82.357C202.039 82.5292 202.18 82.799 202.18 83.3H204.18C204.18 82.3823 203.9 81.5415 203.241 80.911L201.859 82.357ZM202.18 83.3C202.18 83.8147 202.037 84.0873 201.859 84.257L203.241 85.703C203.903 85.07 204.18 84.2226 204.18 83.3H202.18ZM201.851 84.2648C201.653 84.458 201.385 84.582 200.954 84.582V86.582C201.829 86.582 202.625 86.3047 203.249 85.6952L201.851 84.2648ZM200.954 84.582C200.523 84.582 200.245 84.4579 200.035 84.257L198.653 85.703C199.283 86.3048 200.078 86.582 200.954 86.582V84.582ZM200.043 84.2648C199.87 84.0965 199.728 83.8212 199.728 83.3H197.728C197.728 84.2161 197.996 85.0608 198.645 85.6952L200.043 84.2648ZM206.844 80.7104L201.342 90.5104L203.086 91.4896L208.588 81.6896L206.844 80.7104ZM202.214 90H200.31V92H202.214V90ZM201.182 91.4886L206.67 81.6886L204.925 80.7114L199.437 90.5114L201.182 91.4886ZM205.798 82.2H207.716V80.2H205.798V82.2ZM200.94 81.208C200.415 81.208 199.891 81.4136 199.545 81.9047C199.244 82.332 199.17 82.849 199.17 83.3H201.17C201.17 83.1736 201.181 83.0942 201.191 83.0511C201.201 83.0082 201.206 83.0202 201.18 83.0573C201.149 83.1006 201.097 83.1486 201.03 83.1803C200.968 83.2096 200.929 83.208 200.94 83.208V81.208ZM199.17 83.3C199.17 83.7539 199.243 84.2723 199.542 84.7009C199.886 85.1952 200.41 85.406 200.94 85.406V83.406C200.931 83.406 200.972 83.4047 201.035 83.4349C201.103 83.4675 201.154 83.516 201.183 83.5581C201.208 83.5938 201.203 83.6036 201.192 83.5578C201.181 83.5119 201.17 83.4295 201.17 83.3H199.17ZM200.94 85.406C201.458 85.406 201.959 85.2071 202.313 84.7596L200.743 83.5204C200.767 83.49 200.808 83.4533 200.864 83.4284C200.915 83.4049 200.948 83.406 200.94 83.406V85.406ZM202.328 84.74C202.655 84.3039 202.738 83.7695 202.738 83.3H200.738C200.738 83.4274 200.725 83.506 200.715 83.5475C200.705 83.5879 200.701 83.5753 200.728 83.54L202.328 84.74ZM202.738 83.3C202.738 82.8438 202.66 82.3207 202.346 81.891C201.989 81.4028 201.46 81.208 200.94 81.208V83.208C200.959 83.208 200.929 83.2113 200.874 83.1861C200.813 83.1583 200.763 83.1145 200.731 83.071C200.703 83.0335 200.707 83.0195 200.716 83.0589C200.726 83.0991 200.738 83.1757 200.738 83.3H202.738ZM205.874 88.886C205.874 88.3636 206.017 88.0994 206.18 87.9434L204.799 86.4966C204.141 87.1246 203.874 87.971 203.874 88.886H205.874ZM206.181 87.943C206.391 87.7421 206.669 87.618 207.1 87.618V85.618C206.224 85.618 205.429 85.8952 204.799 86.497L206.181 87.943ZM207.1 87.618C207.531 87.618 207.789 87.7419 207.975 87.9271L209.389 86.5129C208.771 85.8954 207.975 85.618 207.1 85.618V87.618ZM207.991 87.9434C208.155 88.0994 208.298 88.3636 208.298 88.886H210.298C210.298 87.971 210.03 87.1246 209.372 86.4966L207.991 87.9434ZM208.298 88.886C208.298 89.4072 208.155 89.6825 207.983 89.8508L209.381 91.2812C210.03 90.6468 210.298 89.8021 210.298 88.886H208.298ZM207.975 89.8589C207.789 90.0441 207.531 90.168 207.1 90.168V92.168C207.975 92.168 208.771 91.8906 209.389 91.2731L207.975 89.8589ZM207.1 90.168C206.655 90.168 206.384 90.0413 206.189 89.8508L204.791 91.2812C205.417 91.8934 206.219 92.168 207.1 92.168V90.168ZM206.189 89.8508C206.016 89.6825 205.874 89.4072 205.874 88.886H203.874C203.874 89.8021 204.142 90.6468 204.791 91.2812L206.189 89.8508ZM207.086 86.794C206.566 86.794 206.037 86.9888 205.68 87.477C205.366 87.9067 205.288 88.4298 205.288 88.886H207.288C207.288 88.7617 207.299 88.6851 207.309 88.6449C207.319 88.6055 207.322 88.6195 207.295 88.657C207.263 88.7005 207.212 88.7443 207.152 88.7721C207.096 88.7973 207.066 88.794 207.086 88.794V86.794ZM205.288 88.886C205.288 89.345 205.365 89.8694 205.676 90.3006C206.031 90.7923 206.561 90.992 207.086 90.992V88.992C207.068 88.992 207.1 88.989 207.156 89.0151C207.218 89.0436 207.268 89.0881 207.298 89.1304C207.324 89.1666 207.32 89.1785 207.31 89.136C207.3 89.0931 207.288 89.0134 207.288 88.886H205.288ZM207.086 90.992C207.613 90.992 208.14 90.7869 208.49 90.2938C208.794 89.8639 208.87 89.3424 208.87 88.886H206.87C206.87 89.0145 206.858 89.0955 206.848 89.1399C206.837 89.184 206.832 89.1731 206.858 89.1372C206.888 89.095 206.938 89.0485 207.003 89.0179C207.063 88.9898 207.099 88.992 207.086 88.992V90.992ZM208.87 88.886C208.87 88.4324 208.794 87.9123 208.486 87.4838C208.134 86.994 207.608 86.794 207.086 86.794V88.794C207.101 88.794 207.066 88.7965 207.008 88.7693C206.944 88.7396 206.893 88.6936 206.861 88.6502C206.835 88.6129 206.838 88.5998 206.848 88.641C206.858 88.6826 206.87 88.7606 206.87 88.886H208.87Z" fill="white"/>
<path d="M243.504 127.6V125.794H246.878V136H244.862V127.6H243.504ZM255.874 127.488H251.338V129.882C251.534 129.639 251.814 129.443 252.178 129.294C252.542 129.135 252.93 129.056 253.34 129.056C254.087 129.056 254.698 129.219 255.174 129.546C255.65 129.873 255.996 130.293 256.21 130.806C256.425 131.31 256.532 131.851 256.532 132.43C256.532 133.503 256.224 134.367 255.608 135.02C255.002 135.673 254.134 136 253.004 136C251.94 136 251.091 135.734 250.456 135.202C249.822 134.67 249.462 133.975 249.378 133.116H251.282C251.366 133.489 251.553 133.788 251.842 134.012C252.141 134.236 252.519 134.348 252.976 134.348C253.527 134.348 253.942 134.175 254.222 133.83C254.502 133.485 254.642 133.027 254.642 132.458C254.642 131.879 254.498 131.441 254.208 131.142C253.928 130.834 253.513 130.68 252.962 130.68C252.57 130.68 252.244 130.778 251.982 130.974C251.721 131.17 251.534 131.431 251.422 131.758H249.546V125.766H255.874V127.488ZM258 128.3C258 127.591 258.205 127.035 258.616 126.634C259.036 126.233 259.573 126.032 260.226 126.032C260.879 126.032 261.411 126.233 261.822 126.634C262.242 127.035 262.452 127.591 262.452 128.3C262.452 129.019 262.242 129.579 261.822 129.98C261.411 130.381 260.879 130.582 260.226 130.582C259.573 130.582 259.036 130.381 258.616 129.98C258.205 129.579 258 129.019 258 128.3ZM266.988 126.2L261.486 136H259.582L265.07 126.2H266.988ZM260.212 127.208C259.699 127.208 259.442 127.572 259.442 128.3C259.442 129.037 259.699 129.406 260.212 129.406C260.464 129.406 260.66 129.317 260.8 129.14C260.94 128.953 261.01 128.673 261.01 128.3C261.01 127.572 260.744 127.208 260.212 127.208ZM264.146 133.886C264.146 133.167 264.351 132.612 264.762 132.22C265.182 131.819 265.719 131.618 266.372 131.618C267.025 131.618 267.553 131.819 267.954 132.22C268.365 132.612 268.57 133.167 268.57 133.886C268.57 134.605 268.365 135.165 267.954 135.566C267.553 135.967 267.025 136.168 266.372 136.168C265.709 136.168 265.173 135.967 264.762 135.566C264.351 135.165 264.146 134.605 264.146 133.886ZM266.358 132.794C265.826 132.794 265.56 133.158 265.56 133.886C265.56 134.623 265.826 134.992 266.358 134.992C266.881 134.992 267.142 134.623 267.142 133.886C267.142 133.158 266.881 132.794 266.358 132.794Z" fill="#212121"/>
<path d="M243.504 127.6H242.504C242.504 128.152 242.952 128.6 243.504 128.6V127.6ZM243.504 125.794V124.794C242.952 124.794 242.504 125.242 242.504 125.794H243.504ZM246.878 125.794H247.878C247.878 125.242 247.43 124.794 246.878 124.794V125.794ZM246.878 136V137C247.43 137 247.878 136.552 247.878 136H246.878ZM244.862 136H243.862C243.862 136.552 244.31 137 244.862 137V136ZM244.862 127.6H245.862C245.862 127.048 245.414 126.6 244.862 126.6V127.6ZM244.504 127.6V125.794H242.504V127.6H244.504ZM243.504 126.794H246.878V124.794H243.504V126.794ZM245.878 125.794V136H247.878V125.794H245.878ZM246.878 135H244.862V137H246.878V135ZM245.862 136V127.6H243.862V136H245.862ZM244.862 126.6H243.504V128.6H244.862V126.6ZM255.874 127.488V128.488C256.427 128.488 256.874 128.04 256.874 127.488H255.874ZM251.338 127.488V126.488C250.786 126.488 250.338 126.936 250.338 127.488H251.338ZM251.338 129.882H250.338C250.338 130.306 250.605 130.684 251.005 130.825C251.405 130.966 251.85 130.84 252.116 130.51L251.338 129.882ZM252.178 129.294L252.558 130.219C252.565 130.216 252.571 130.214 252.578 130.211L252.178 129.294ZM255.174 129.546L254.608 130.371L255.174 129.546ZM256.21 130.806L255.288 131.192L255.29 131.198L256.21 130.806ZM255.608 135.02L254.881 134.334L254.875 134.34L255.608 135.02ZM250.456 135.202L249.814 135.968L250.456 135.202ZM249.378 133.116V132.116C249.096 132.116 248.827 132.235 248.638 132.444C248.448 132.653 248.356 132.933 248.383 133.213L249.378 133.116ZM251.282 133.116L252.258 132.896C252.155 132.44 251.75 132.116 251.282 132.116V133.116ZM251.842 134.012L251.23 134.803C251.234 134.806 251.238 134.809 251.242 134.812L251.842 134.012ZM254.222 133.83L254.999 134.46L254.222 133.83ZM254.208 131.142L253.468 131.815C253.475 131.822 253.483 131.83 253.49 131.838L254.208 131.142ZM251.982 130.974L251.382 130.174L251.982 130.974ZM251.422 131.758V132.758C251.85 132.758 252.23 132.487 252.368 132.082L251.422 131.758ZM249.546 131.758H248.546C248.546 132.31 248.994 132.758 249.546 132.758V131.758ZM249.546 125.766V124.766C248.994 124.766 248.546 125.214 248.546 125.766H249.546ZM255.874 125.766H256.874C256.874 125.214 256.427 124.766 255.874 124.766V125.766ZM255.874 126.488H251.338V128.488H255.874V126.488ZM250.338 127.488V129.882H252.338V127.488H250.338ZM252.116 130.51C252.182 130.428 252.31 130.321 252.558 130.219L251.799 128.369C251.319 128.566 250.886 128.85 250.56 129.254L252.116 130.51ZM252.578 130.211C252.811 130.109 253.062 130.056 253.34 130.056V128.056C252.797 128.056 252.273 128.162 251.779 128.377L252.578 130.211ZM253.34 130.056C253.944 130.056 254.342 130.187 254.608 130.371L255.74 128.721C255.055 128.251 254.23 128.056 253.34 128.056V130.056ZM254.608 130.371C254.932 130.593 255.15 130.863 255.288 131.192L257.133 130.42C256.841 129.722 256.368 129.153 255.74 128.721L254.608 130.371ZM255.29 131.198C255.449 131.571 255.532 131.978 255.532 132.43H257.532C257.532 131.724 257.401 131.049 257.13 130.414L255.29 131.198ZM255.532 132.43C255.532 133.301 255.289 133.901 254.881 134.334L256.336 135.706C257.16 134.832 257.532 133.705 257.532 132.43H255.532ZM254.875 134.34C254.506 134.738 253.934 135 253.004 135V137C254.333 137 255.497 136.609 256.341 135.7L254.875 134.34ZM253.004 135C252.107 135 251.507 134.778 251.099 134.436L249.814 135.968C250.675 136.69 251.774 137 253.004 137V135ZM251.099 134.436C250.674 134.079 250.433 133.629 250.374 133.019L248.383 133.213C248.491 134.321 248.969 135.261 249.814 135.968L251.099 134.436ZM249.378 134.116H251.282V132.116H249.378V134.116ZM250.307 133.336C250.439 133.924 250.748 134.429 251.23 134.803L252.454 133.221C252.358 133.147 252.293 133.054 252.258 132.896L250.307 133.336ZM251.242 134.812C251.75 135.193 252.352 135.348 252.976 135.348V133.348C252.686 133.348 252.532 133.279 252.442 133.212L251.242 134.812ZM252.976 135.348C253.749 135.348 254.484 135.094 254.999 134.46L253.446 133.2C253.4 133.256 253.304 133.348 252.976 133.348V135.348ZM254.999 134.46C255.46 133.891 255.642 133.191 255.642 132.458H253.642C253.642 132.863 253.545 133.078 253.446 133.2L254.999 134.46ZM255.642 132.458C255.642 131.723 255.457 130.994 254.927 130.446L253.49 131.838C253.538 131.887 253.642 132.036 253.642 132.458H255.642ZM254.948 130.469C254.423 129.891 253.699 129.68 252.962 129.68V131.68C253.327 131.68 253.434 131.777 253.468 131.815L254.948 130.469ZM252.962 129.68C252.398 129.68 251.849 129.824 251.382 130.174L252.582 131.774C252.638 131.732 252.742 131.68 252.962 131.68V129.68ZM251.382 130.174C250.951 130.497 250.649 130.929 250.476 131.434L252.368 132.082C252.419 131.934 252.491 131.843 252.582 131.774L251.382 130.174ZM251.422 130.758H249.546V132.758H251.422V130.758ZM250.546 131.758V125.766H248.546V131.758H250.546ZM249.546 126.766H255.874V124.766H249.546V126.766ZM254.874 125.766V127.488H256.874V125.766H254.874ZM258.616 126.634L257.925 125.911L257.917 125.919L258.616 126.634ZM261.822 126.634L261.123 127.349L261.131 127.357L261.822 126.634ZM261.822 129.98L261.131 129.257L261.123 129.265L261.822 129.98ZM258.616 129.98L257.917 130.695L257.925 130.703L258.616 129.98ZM266.988 126.2L267.86 126.69C268.034 126.38 268.03 126.001 267.851 125.695C267.672 125.388 267.343 125.2 266.988 125.2V126.2ZM261.486 136V137C261.848 137 262.181 136.805 262.358 136.49L261.486 136ZM259.582 136L258.71 135.511C258.536 135.821 258.54 136.199 258.719 136.506C258.899 136.812 259.227 137 259.582 137V136ZM265.07 126.2V125.2C264.708 125.2 264.374 125.396 264.198 125.711L265.07 126.2ZM260.8 129.14L261.585 129.76C261.59 129.753 261.595 129.747 261.6 129.74L260.8 129.14ZM264.762 132.22L265.453 132.943L265.453 132.943L264.762 132.22ZM267.954 132.22L267.247 132.927C267.252 132.933 267.258 132.938 267.264 132.943L267.954 132.22ZM267.954 135.566L267.255 134.851L267.247 134.859L267.954 135.566ZM264.762 135.566L265.461 134.851L264.762 135.566ZM259 128.3C259 127.792 259.14 127.52 259.315 127.349L257.917 125.919C257.271 126.551 257 127.389 257 128.3H259ZM259.307 127.357C259.517 127.156 259.795 127.032 260.226 127.032V125.032C259.35 125.032 258.555 125.309 257.925 125.911L259.307 127.357ZM260.226 127.032C260.657 127.032 260.925 127.156 261.123 127.349L262.521 125.919C261.897 125.309 261.102 125.032 260.226 125.032V127.032ZM261.131 127.357C261.311 127.529 261.452 127.799 261.452 128.3H263.452C263.452 127.382 263.173 126.541 262.513 125.911L261.131 127.357ZM261.452 128.3C261.452 128.815 261.309 129.087 261.131 129.257L262.513 130.703C263.175 130.07 263.452 129.223 263.452 128.3H261.452ZM261.123 129.265C260.925 129.458 260.657 129.582 260.226 129.582V131.582C261.102 131.582 261.897 131.305 262.521 130.695L261.123 129.265ZM260.226 129.582C259.795 129.582 259.517 129.458 259.307 129.257L257.925 130.703C258.555 131.305 259.35 131.582 260.226 131.582V129.582ZM259.315 129.265C259.143 129.096 259 128.821 259 128.3H257C257 129.216 257.268 130.061 257.917 130.695L259.315 129.265ZM266.116 125.71L260.614 135.51L262.358 136.49L267.86 126.69L266.116 125.71ZM261.486 135H259.582V137H261.486V135ZM260.455 136.489L265.943 126.689L264.198 125.711L258.71 135.511L260.455 136.489ZM265.07 127.2H266.988V125.2H265.07V127.2ZM260.212 126.208C259.687 126.208 259.164 126.414 258.817 126.905C258.516 127.332 258.442 127.849 258.442 128.3H260.442C260.442 128.174 260.453 128.094 260.464 128.051C260.474 128.008 260.478 128.02 260.452 128.057C260.421 128.101 260.37 128.149 260.303 128.18C260.241 128.21 260.202 128.208 260.212 128.208V126.208ZM258.442 128.3C258.442 128.754 258.515 129.272 258.814 129.701C259.158 130.195 259.682 130.406 260.212 130.406V128.406C260.203 128.406 260.244 128.405 260.307 128.435C260.375 128.468 260.426 128.516 260.455 128.558C260.48 128.594 260.475 128.604 260.464 128.558C260.454 128.512 260.442 128.43 260.442 128.3H258.442ZM260.212 130.406C260.73 130.406 261.232 130.207 261.585 129.76L260.015 128.52C260.039 128.49 260.081 128.453 260.136 128.428C260.188 128.405 260.22 128.406 260.212 128.406V130.406ZM261.6 129.74C261.927 129.304 262.01 128.769 262.01 128.3H260.01C260.01 128.427 259.998 128.506 259.987 128.547C259.977 128.588 259.974 128.575 260 128.54L261.6 129.74ZM262.01 128.3C262.01 127.844 261.932 127.321 261.618 126.891C261.261 126.403 260.732 126.208 260.212 126.208V128.208C260.232 128.208 260.201 128.211 260.146 128.186C260.085 128.158 260.035 128.114 260.003 128.071C259.976 128.034 259.979 128.019 259.989 128.059C259.998 128.099 260.01 128.176 260.01 128.3H262.01ZM265.146 133.886C265.146 133.364 265.289 133.099 265.453 132.943L264.072 131.497C263.414 132.125 263.146 132.971 263.146 133.886H265.146ZM265.453 132.943C265.663 132.742 265.941 132.618 266.372 132.618V130.618C265.496 130.618 264.701 130.895 264.071 131.497L265.453 132.943ZM266.372 132.618C266.804 132.618 267.062 132.742 267.247 132.927L268.661 131.513C268.044 130.895 267.247 130.618 266.372 130.618V132.618ZM267.264 132.943C267.427 133.099 267.57 133.364 267.57 133.886H269.57C269.57 132.971 269.302 132.125 268.645 131.497L267.264 132.943ZM267.57 133.886C267.57 134.407 267.427 134.682 267.255 134.851L268.653 136.281C269.302 135.647 269.57 134.802 269.57 133.886H267.57ZM267.247 134.859C267.062 135.044 266.804 135.168 266.372 135.168V137.168C267.247 137.168 268.044 136.891 268.661 136.273L267.247 134.859ZM266.372 135.168C265.927 135.168 265.656 135.041 265.461 134.851L264.063 136.281C264.69 136.893 265.492 137.168 266.372 137.168V135.168ZM265.461 134.851C265.289 134.682 265.146 134.407 265.146 133.886H263.146C263.146 134.802 263.414 135.647 264.063 136.281L265.461 134.851ZM266.358 131.794C265.838 131.794 265.309 131.989 264.952 132.477C264.638 132.907 264.56 133.43 264.56 133.886H266.56C266.56 133.762 266.572 133.685 266.581 133.645C266.591 133.605 266.594 133.62 266.567 133.657C266.535 133.7 266.485 133.744 266.424 133.772C266.369 133.797 266.338 133.794 266.358 133.794V131.794ZM264.56 133.886C264.56 134.345 264.637 134.869 264.949 135.301C265.303 135.792 265.833 135.992 266.358 135.992V133.992C266.34 133.992 266.372 133.989 266.428 134.015C266.49 134.044 266.54 134.088 266.57 134.13C266.597 134.167 266.592 134.178 266.582 134.136C266.572 134.093 266.56 134.013 266.56 133.886H264.56ZM266.358 135.992C266.885 135.992 267.412 135.787 267.762 135.294C268.067 134.864 268.142 134.342 268.142 133.886H266.142C266.142 134.014 266.13 134.095 266.12 134.14C266.109 134.184 266.105 134.173 266.13 134.137C266.16 134.095 266.211 134.048 266.275 134.018C266.335 133.99 266.371 133.992 266.358 133.992V135.992ZM268.142 133.886C268.142 133.432 268.066 132.912 267.758 132.484C267.407 131.994 266.88 131.794 266.358 131.794V133.794C266.373 133.794 266.339 133.796 266.28 133.769C266.216 133.74 266.165 133.694 266.134 133.65C266.107 133.613 266.111 133.6 266.12 133.641C266.13 133.683 266.142 133.761 266.142 133.886H268.142Z" fill="white"/>
<path d="M243.504 208.6V206.794H246.878V217H244.862V208.6H243.504ZM255.874 208.488H251.338V210.882C251.534 210.639 251.814 210.443 252.178 210.294C252.542 210.135 252.93 210.056 253.34 210.056C254.087 210.056 254.698 210.219 255.174 210.546C255.65 210.873 255.996 211.293 256.21 211.806C256.425 212.31 256.532 212.851 256.532 213.43C256.532 214.503 256.224 215.367 255.608 216.02C255.002 216.673 254.134 217 253.004 217C251.94 217 251.091 216.734 250.456 216.202C249.822 215.67 249.462 214.975 249.378 214.116H251.282C251.366 214.489 251.553 214.788 251.842 215.012C252.141 215.236 252.519 215.348 252.976 215.348C253.527 215.348 253.942 215.175 254.222 214.83C254.502 214.485 254.642 214.027 254.642 213.458C254.642 212.879 254.498 212.441 254.208 212.142C253.928 211.834 253.513 211.68 252.962 211.68C252.57 211.68 252.244 211.778 251.982 211.974C251.721 212.17 251.534 212.431 251.422 212.758H249.546V206.766H255.874V208.488ZM258 209.3C258 208.591 258.205 208.035 258.616 207.634C259.036 207.233 259.573 207.032 260.226 207.032C260.879 207.032 261.411 207.233 261.822 207.634C262.242 208.035 262.452 208.591 262.452 209.3C262.452 210.019 262.242 210.579 261.822 210.98C261.411 211.381 260.879 211.582 260.226 211.582C259.573 211.582 259.036 211.381 258.616 210.98C258.205 210.579 258 210.019 258 209.3ZM266.988 207.2L261.486 217H259.582L265.07 207.2H266.988ZM260.212 208.208C259.699 208.208 259.442 208.572 259.442 209.3C259.442 210.037 259.699 210.406 260.212 210.406C260.464 210.406 260.66 210.317 260.8 210.14C260.94 209.953 261.01 209.673 261.01 209.3C261.01 208.572 260.744 208.208 260.212 208.208ZM264.146 214.886C264.146 214.167 264.351 213.612 264.762 213.22C265.182 212.819 265.719 212.618 266.372 212.618C267.025 212.618 267.553 212.819 267.954 213.22C268.365 213.612 268.57 214.167 268.57 214.886C268.57 215.605 268.365 216.165 267.954 216.566C267.553 216.967 267.025 217.168 266.372 217.168C265.709 217.168 265.173 216.967 264.762 216.566C264.351 216.165 264.146 215.605 264.146 214.886ZM266.358 213.794C265.826 213.794 265.56 214.158 265.56 214.886C265.56 215.623 265.826 215.992 266.358 215.992C266.881 215.992 267.142 215.623 267.142 214.886C267.142 214.158 266.881 213.794 266.358 213.794Z" fill="#212121"/>
<path d="M243.504 208.6H242.504C242.504 209.152 242.952 209.6 243.504 209.6V208.6ZM243.504 206.794V205.794C242.952 205.794 242.504 206.242 242.504 206.794H243.504ZM246.878 206.794H247.878C247.878 206.242 247.43 205.794 246.878 205.794V206.794ZM246.878 217V218C247.43 218 247.878 217.552 247.878 217H246.878ZM244.862 217H243.862C243.862 217.552 244.31 218 244.862 218V217ZM244.862 208.6H245.862C245.862 208.048 245.414 207.6 244.862 207.6V208.6ZM244.504 208.6V206.794H242.504V208.6H244.504ZM243.504 207.794H246.878V205.794H243.504V207.794ZM245.878 206.794V217H247.878V206.794H245.878ZM246.878 216H244.862V218H246.878V216ZM245.862 217V208.6H243.862V217H245.862ZM244.862 207.6H243.504V209.6H244.862V207.6ZM255.874 208.488V209.488C256.427 209.488 256.874 209.04 256.874 208.488H255.874ZM251.338 208.488V207.488C250.786 207.488 250.338 207.936 250.338 208.488H251.338ZM251.338 210.882H250.338C250.338 211.306 250.605 211.684 251.005 211.825C251.405 211.966 251.85 211.84 252.116 211.51L251.338 210.882ZM252.178 210.294L252.558 211.219C252.565 211.216 252.571 211.214 252.578 211.211L252.178 210.294ZM255.174 210.546L254.608 211.371L255.174 210.546ZM256.21 211.806L255.288 212.192L255.29 212.198L256.21 211.806ZM255.608 216.02L254.881 215.334L254.875 215.34L255.608 216.02ZM250.456 216.202L249.814 216.968L250.456 216.202ZM249.378 214.116V213.116C249.096 213.116 248.827 213.235 248.638 213.444C248.448 213.653 248.356 213.933 248.383 214.213L249.378 214.116ZM251.282 214.116L252.258 213.896C252.155 213.44 251.75 213.116 251.282 213.116V214.116ZM251.842 215.012L251.23 215.803C251.234 215.806 251.238 215.809 251.242 215.812L251.842 215.012ZM254.222 214.83L254.999 215.46L254.222 214.83ZM254.208 212.142L253.468 212.815C253.475 212.822 253.483 212.83 253.49 212.838L254.208 212.142ZM251.982 211.974L251.382 211.174L251.982 211.974ZM251.422 212.758V213.758C251.85 213.758 252.23 213.487 252.368 213.082L251.422 212.758ZM249.546 212.758H248.546C248.546 213.31 248.994 213.758 249.546 213.758V212.758ZM249.546 206.766V205.766C248.994 205.766 248.546 206.214 248.546 206.766H249.546ZM255.874 206.766H256.874C256.874 206.214 256.427 205.766 255.874 205.766V206.766ZM255.874 207.488H251.338V209.488H255.874V207.488ZM250.338 208.488V210.882H252.338V208.488H250.338ZM252.116 211.51C252.182 211.428 252.31 211.321 252.558 211.219L251.799 209.369C251.319 209.566 250.886 209.85 250.56 210.254L252.116 211.51ZM252.578 211.211C252.811 211.109 253.062 211.056 253.34 211.056V209.056C252.797 209.056 252.273 209.162 251.779 209.377L252.578 211.211ZM253.34 211.056C253.944 211.056 254.342 211.187 254.608 211.371L255.74 209.721C255.055 209.251 254.23 209.056 253.34 209.056V211.056ZM254.608 211.371C254.932 211.593 255.15 211.863 255.288 212.192L257.133 211.42C256.841 210.722 256.368 210.153 255.74 209.721L254.608 211.371ZM255.29 212.198C255.449 212.571 255.532 212.978 255.532 213.43H257.532C257.532 212.724 257.401 212.049 257.13 211.414L255.29 212.198ZM255.532 213.43C255.532 214.301 255.289 214.901 254.881 215.334L256.336 216.706C257.16 215.832 257.532 214.705 257.532 213.43H255.532ZM254.875 215.34C254.506 215.738 253.934 216 253.004 216V218C254.333 218 255.497 217.609 256.341 216.7L254.875 215.34ZM253.004 216C252.107 216 251.507 215.778 251.099 215.436L249.814 216.968C250.675 217.69 251.774 218 253.004 218V216ZM251.099 215.436C250.674 215.079 250.433 214.629 250.374 214.019L248.383 214.213C248.491 215.321 248.969 216.261 249.814 216.968L251.099 215.436ZM249.378 215.116H251.282V213.116H249.378V215.116ZM250.307 214.336C250.439 214.924 250.748 215.429 251.23 215.803L252.454 214.221C252.358 214.147 252.293 214.054 252.258 213.896L250.307 214.336ZM251.242 215.812C251.75 216.193 252.352 216.348 252.976 216.348V214.348C252.686 214.348 252.532 214.279 252.442 214.212L251.242 215.812ZM252.976 216.348C253.749 216.348 254.484 216.094 254.999 215.46L253.446 214.2C253.4 214.256 253.304 214.348 252.976 214.348V216.348ZM254.999 215.46C255.46 214.891 255.642 214.191 255.642 213.458H253.642C253.642 213.863 253.545 214.078 253.446 214.2L254.999 215.46ZM255.642 213.458C255.642 212.723 255.457 211.994 254.927 211.446L253.49 212.838C253.538 212.887 253.642 213.036 253.642 213.458H255.642ZM254.948 211.469C254.423 210.891 253.699 210.68 252.962 210.68V212.68C253.327 212.68 253.434 212.777 253.468 212.815L254.948 211.469ZM252.962 210.68C252.398 210.68 251.849 210.824 251.382 211.174L252.582 212.774C252.638 212.732 252.742 212.68 252.962 212.68V210.68ZM251.382 211.174C250.951 211.497 250.649 211.929 250.476 212.434L252.368 213.082C252.419 212.934 252.491 212.843 252.582 212.774L251.382 211.174ZM251.422 211.758H249.546V213.758H251.422V211.758ZM250.546 212.758V206.766H248.546V212.758H250.546ZM249.546 207.766H255.874V205.766H249.546V207.766ZM254.874 206.766V208.488H256.874V206.766H254.874ZM258.616 207.634L257.925 206.911L257.917 206.919L258.616 207.634ZM261.822 207.634L261.123 208.349L261.131 208.357L261.822 207.634ZM261.822 210.98L261.131 210.257L261.123 210.265L261.822 210.98ZM258.616 210.98L257.917 211.695L257.925 211.703L258.616 210.98ZM266.988 207.2L267.86 207.69C268.034 207.38 268.03 207.001 267.851 206.695C267.672 206.388 267.343 206.2 266.988 206.2V207.2ZM261.486 217V218C261.848 218 262.181 217.805 262.358 217.49L261.486 217ZM259.582 217L258.71 216.511C258.536 216.821 258.54 217.199 258.719 217.506C258.899 217.812 259.227 218 259.582 218V217ZM265.07 207.2V206.2C264.708 206.2 264.374 206.396 264.198 206.711L265.07 207.2ZM260.8 210.14L261.585 210.76C261.59 210.753 261.595 210.747 261.6 210.74L260.8 210.14ZM264.762 213.22L265.453 213.943L265.453 213.943L264.762 213.22ZM267.954 213.22L267.247 213.927C267.252 213.933 267.258 213.938 267.264 213.943L267.954 213.22ZM267.954 216.566L267.255 215.851L267.247 215.859L267.954 216.566ZM264.762 216.566L265.461 215.851L264.762 216.566ZM259 209.3C259 208.792 259.14 208.52 259.315 208.349L257.917 206.919C257.271 207.551 257 208.389 257 209.3H259ZM259.307 208.357C259.517 208.156 259.795 208.032 260.226 208.032V206.032C259.35 206.032 258.555 206.309 257.925 206.911L259.307 208.357ZM260.226 208.032C260.657 208.032 260.925 208.156 261.123 208.349L262.521 206.919C261.897 206.309 261.102 206.032 260.226 206.032V208.032ZM261.131 208.357C261.311 208.529 261.452 208.799 261.452 209.3H263.452C263.452 208.382 263.173 207.541 262.513 206.911L261.131 208.357ZM261.452 209.3C261.452 209.815 261.309 210.087 261.131 210.257L262.513 211.703C263.175 211.07 263.452 210.223 263.452 209.3H261.452ZM261.123 210.265C260.925 210.458 260.657 210.582 260.226 210.582V212.582C261.102 212.582 261.897 212.305 262.521 211.695L261.123 210.265ZM260.226 210.582C259.795 210.582 259.517 210.458 259.307 210.257L257.925 211.703C258.555 212.305 259.35 212.582 260.226 212.582V210.582ZM259.315 210.265C259.143 210.096 259 209.821 259 209.3H257C257 210.216 257.268 211.061 257.917 211.695L259.315 210.265ZM266.116 206.71L260.614 216.51L262.358 217.49L267.86 207.69L266.116 206.71ZM261.486 216H259.582V218H261.486V216ZM260.455 217.489L265.943 207.689L264.198 206.711L258.71 216.511L260.455 217.489ZM265.07 208.2H266.988V206.2H265.07V208.2ZM260.212 207.208C259.687 207.208 259.164 207.414 258.817 207.905C258.516 208.332 258.442 208.849 258.442 209.3H260.442C260.442 209.174 260.453 209.094 260.464 209.051C260.474 209.008 260.478 209.02 260.452 209.057C260.421 209.101 260.37 209.149 260.303 209.18C260.241 209.21 260.202 209.208 260.212 209.208V207.208ZM258.442 209.3C258.442 209.754 258.515 210.272 258.814 210.701C259.158 211.195 259.682 211.406 260.212 211.406V209.406C260.203 209.406 260.244 209.405 260.307 209.435C260.375 209.468 260.426 209.516 260.455 209.558C260.48 209.594 260.475 209.604 260.464 209.558C260.454 209.512 260.442 209.43 260.442 209.3H258.442ZM260.212 211.406C260.73 211.406 261.232 211.207 261.585 210.76L260.015 209.52C260.039 209.49 260.081 209.453 260.136 209.428C260.188 209.405 260.22 209.406 260.212 209.406V211.406ZM261.6 210.74C261.927 210.304 262.01 209.769 262.01 209.3H260.01C260.01 209.427 259.998 209.506 259.987 209.547C259.977 209.588 259.974 209.575 260 209.54L261.6 210.74ZM262.01 209.3C262.01 208.844 261.932 208.321 261.618 207.891C261.261 207.403 260.732 207.208 260.212 207.208V209.208C260.232 209.208 260.201 209.211 260.146 209.186C260.085 209.158 260.035 209.114 260.003 209.071C259.976 209.034 259.979 209.019 259.989 209.059C259.998 209.099 260.01 209.176 260.01 209.3H262.01ZM265.146 214.886C265.146 214.364 265.289 214.099 265.453 213.943L264.072 212.497C263.414 213.125 263.146 213.971 263.146 214.886H265.146ZM265.453 213.943C265.663 213.742 265.941 213.618 266.372 213.618V211.618C265.496 211.618 264.701 211.895 264.071 212.497L265.453 213.943ZM266.372 213.618C266.804 213.618 267.062 213.742 267.247 213.927L268.661 212.513C268.044 211.895 267.247 211.618 266.372 211.618V213.618ZM267.264 213.943C267.427 214.099 267.57 214.364 267.57 214.886H269.57C269.57 213.971 269.302 213.125 268.645 212.497L267.264 213.943ZM267.57 214.886C267.57 215.407 267.427 215.682 267.255 215.851L268.653 217.281C269.302 216.647 269.57 215.802 269.57 214.886H267.57ZM267.247 215.859C267.062 216.044 266.804 216.168 266.372 216.168V218.168C267.247 218.168 268.044 217.891 268.661 217.273L267.247 215.859ZM266.372 216.168C265.927 216.168 265.656 216.041 265.461 215.851L264.063 217.281C264.69 217.893 265.492 218.168 266.372 218.168V216.168ZM265.461 215.851C265.289 215.682 265.146 215.407 265.146 214.886H263.146C263.146 215.802 263.414 216.647 264.063 217.281L265.461 215.851ZM266.358 212.794C265.838 212.794 265.309 212.989 264.952 213.477C264.638 213.907 264.56 214.43 264.56 214.886H266.56C266.56 214.762 266.572 214.685 266.581 214.645C266.591 214.605 266.594 214.62 266.567 214.657C266.535 214.7 266.485 214.744 266.424 214.772C266.369 214.797 266.338 214.794 266.358 214.794V212.794ZM264.56 214.886C264.56 215.345 264.637 215.869 264.949 216.301C265.303 216.792 265.833 216.992 266.358 216.992V214.992C266.34 214.992 266.372 214.989 266.428 215.015C266.49 215.044 266.54 215.088 266.57 215.13C266.597 215.167 266.592 215.178 266.582 215.136C266.572 215.093 266.56 215.013 266.56 214.886H264.56ZM266.358 216.992C266.885 216.992 267.412 216.787 267.762 216.294C268.067 215.864 268.142 215.342 268.142 214.886H266.142C266.142 215.014 266.13 215.095 266.12 215.14C266.109 215.184 266.105 215.173 266.13 215.137C266.16 215.095 266.211 215.048 266.275 215.018C266.335 214.99 266.371 214.992 266.358 214.992V216.992ZM268.142 214.886C268.142 214.432 268.066 213.912 267.758 213.484C267.407 212.994 266.88 212.794 266.358 212.794V214.794C266.373 214.794 266.339 214.796 266.28 214.769C266.216 214.74 266.165 214.694 266.134 214.65C266.107 214.613 266.111 214.6 266.12 214.641C266.13 214.683 266.142 214.761 266.142 214.886H268.142Z" fill="white"/>
</g>
<defs>
<filter id="filter0_dd_5904_5015" x="47.04" y="50.9639" width="254.054" height="253.237" filterUnits="userSpaceOnUse" color-interpolation-filters="sRGB">
<feFlood flood-opacity="0" result="BackgroundImageFix"/>
<feColorMatrix in="SourceAlpha" type="matrix" values="0 0 0 0 0 0 0 0 0 0 0 0 0 0 0 0 0 0 127 0" result="hardAlpha"/>
<feOffset dy="4"/>
<feGaussianBlur stdDeviation="2"/>
<feComposite in2="hardAlpha" operator="out"/>
<feColorMatrix type="matrix" values="0 0 0 0 0 0 0 0 0 0 0 0 0 0 0 0 0 0 0.25 0"/>
<feBlend mode="normal" in2="BackgroundImageFix" result="effect1_dropShadow_5904_5015"/>
<feColorMatrix in="SourceAlpha" type="matrix" values="0 0 0 0 0 0 0 0 0 0 0 0 0 0 0 0 0 0 127 0" result="hardAlpha"/>
<feOffset dy="4"/>
<feGaussianBlur stdDeviation="2"/>
<feComposite in2="hardAlpha" operator="out"/>
<feColorMatrix type="matrix" values="0 0 0 0 0 0 0 0 0 0 0 0 0 0 0 0 0 0 0.25 0"/>
<feBlend mode="normal" in2="effect1_dropShadow_5904_5015" result="effect2_dropShadow_5904_5015"/>
<feBlend mode="normal" in="SourceGraphic" in2="effect2_dropShadow_5904_5015" result="shape"/>
</filter>
</defs>
</svg>
