<svg width="40" height="40" viewBox="0 0 40 40" fill="none" xmlns="http://www.w3.org/2000/svg">
<rect width="40" height="40" rx="20" fill="#004CE8"/>
<path fill-rule="evenodd" clip-rule="evenodd" d="M25.2038 18.796L26.9998 17C27.545 16.4548 27.8176 16.1821 27.9634 15.888C28.2407 15.3285 28.2407 14.6715 27.9634 14.112C27.8176 13.8179 27.545 13.5453 26.9998 13C26.4545 12.4548 26.1819 12.1821 25.8878 12.0364C25.3282 11.7591 24.6713 11.7591 24.1117 12.0364C23.8176 12.1821 23.545 12.4548 22.9998 13L21.1811 14.8187C22.145 16.4693 23.5311 17.8448 25.2038 18.796ZM19.7267 16.2731L12.8562 23.1436C12.4311 23.5687 12.2186 23.7812 12.0788 24.0423C11.9391 24.3034 11.8801 24.5981 11.7623 25.1876L11.1469 28.2646C11.0803 28.5972 11.0471 28.7635 11.1417 28.8581C11.2363 28.9527 11.4026 28.9194 11.7352 28.8529L14.8122 28.2375C15.4016 28.1196 15.6964 28.0607 15.9575 27.9209C16.2186 27.7812 16.4311 27.5687 16.8562 27.1436L23.7456 20.2542C22.1239 19.2386 20.7522 17.8763 19.7267 16.2731Z" fill="white"/>
</svg>
